<svg width="208" height="63" viewBox="0 0 208 63" fill="none" xmlns="http://www.w3.org/2000/svg">
<path fill-rule="evenodd" clip-rule="evenodd" d="M86.6746 0.550901C86.3768 0.86879 86.135 0.902676 85.8492 0.665792C85.2908 0.202997 82.8152 1.42227 82.4192 2.35496C82.1932 2.8865 82.1673 2.7516 82.3161 1.8202L82.5152 0.57446L81.0985 0.822316C79.0267 1.18506 78.426 1.22412 78.0697 1.01918C77.61 0.754866 75.5444 0.974645 75.106 1.33449C74.8616 1.53523 74.6844 1.49747 74.591 1.22379C74.4765 0.889121 74.2382 0.884281 73.3847 1.19862C72.6595 1.46552 72.1312 1.48875 71.7248 1.27188C71.2703 1.02886 70.9732 1.1089 70.4717 1.60945C69.925 2.15519 69.5833 2.22651 68.4436 2.03417C67.6897 1.90669 66.9273 1.85086 66.7495 1.90992C66.5717 1.96865 65.626 2.0616 64.648 2.11614C61.8216 2.27396 61.7382 2.28622 61.7382 2.54602C61.7382 2.68189 61.2798 2.72546 60.7192 2.64348C59.8081 2.50987 59.7192 2.56732 59.8805 3.18341C60.0017 3.6462 59.9115 3.87276 59.6063 3.87276C59.3564 3.87276 59.1518 3.65492 59.1518 3.38867C59.1518 3.06594 58.8285 2.90457 58.1818 2.90457C57.6216 2.90457 57.2119 3.07497 57.2119 3.30798C57.2116 3.55713 56.7111 3.72785 55.9022 3.75464C54.4121 3.8037 53.9404 4.09254 54.6348 4.53081C54.9569 4.73413 54.9801 4.83256 54.7063 4.83611C54.4842 4.83869 54.3022 5.05879 54.3022 5.32505C54.3022 5.5913 54.0839 5.80914 53.8172 5.80914C53.5505 5.80914 53.3322 5.5913 53.3322 5.32505C53.3322 5.05879 53.4777 4.84095 53.6555 4.84095C53.8334 4.84095 53.9789 4.69572 53.9789 4.51822C53.9789 4.03154 53.103 4.13095 52.9074 4.63957C52.8033 4.91002 52.4344 5.0262 51.9647 4.93648C51.2514 4.80061 51.2029 4.87548 51.3255 5.92274C51.4516 7.00034 52.2517 7.75488 52.6598 7.18074C52.7629 7.03584 53.2475 6.89158 53.7364 6.8606C54.2252 6.82961 54.8075 6.78766 55.0296 6.76733C55.252 6.747 55.7609 6.83058 56.1612 6.9529C56.7043 7.1191 56.8886 7.0452 56.8886 6.66147C56.8886 6.24354 57.0428 6.20642 57.7179 6.46267C58.9659 6.93612 60.1217 6.85479 60.1217 6.29324C60.1217 5.99213 60.4269 5.80914 60.93 5.80914C61.4023 5.80914 61.7382 5.99471 61.7382 6.25515C61.7382 6.86641 64.2959 6.90513 64.5293 6.29743C64.6224 6.05538 65.0874 5.86497 65.5623 5.87401C67.2076 5.90564 67.5577 5.80688 67.5577 5.31085C67.5577 5.03685 67.7398 4.83611 67.9619 4.86516C68.1843 4.89388 68.6984 4.90033 69.1048 4.87903C69.7375 4.84644 69.7944 4.7493 69.5015 4.20291C69.2224 3.68203 69.2499 3.59941 69.6518 3.75303C69.9227 3.85695 70.1442 4.14418 70.1442 4.39139C70.1442 4.6386 70.3469 4.84095 70.5946 4.84095C70.8422 4.84095 71.1277 5.05654 71.2292 5.31988C71.4995 6.02343 75.3986 5.83657 76.2867 5.07751C76.9699 4.49369 77.7477 4.30942 77.4416 4.80416C77.3442 4.96133 77.63 5.15949 78.0769 5.24501C78.5233 5.33021 78.9682 5.2718 79.0652 5.11527C79.1622 4.95842 79.3769 4.91389 79.5424 5.01619C79.7079 5.11818 79.8434 5.04782 79.8434 4.85999C79.8434 4.67216 80.1431 4.51822 80.5091 4.51822C80.8751 4.51822 81.0849 4.66345 80.975 4.84095C80.8521 5.03943 81.3112 5.14496 82.1683 5.11527C83.0975 5.083 83.2714 5.02265 82.6901 4.93422C82.0691 4.83966 81.8731 4.66022 82.0076 4.31006C82.1114 4.03994 82.2853 3.93989 82.394 4.0877C82.6998 4.50434 83.9859 5.16368 84.4932 5.16368C84.7434 5.16368 85.6183 4.5321 86.4372 3.75981C87.4566 2.79872 87.9261 2.52246 87.9261 2.88359C87.9261 3.17341 87.487 3.66976 86.9503 3.98604C85.8521 4.63376 85.9449 5.16368 87.156 5.16368C87.6729 5.16368 87.8831 5.03265 87.7392 4.80029C87.5779 4.53984 87.6775 4.5279 88.0894 4.75801C88.8171 5.16465 89.8659 4.9055 89.8659 4.3191C89.8659 4.07382 90.0114 3.87276 90.1892 3.87276C90.367 3.87276 90.5125 4.0664 90.5125 4.30296C90.5125 4.97811 94.3204 4.90098 94.5031 4.22228C94.6163 3.80112 94.647 3.81047 94.678 4.27617C94.7213 4.9268 95.3777 5.0191 95.9441 4.45368C96.2383 4.15999 96.3321 4.15838 96.3321 4.4469C96.3321 4.86903 102.01 4.85063 102.69 4.42657C102.897 4.29715 103.14 4.37396 103.231 4.59697C103.357 4.90647 103.473 4.89162 103.722 4.53371C103.902 4.27585 103.978 3.95086 103.892 3.81112C103.805 3.6717 103.96 3.64395 104.236 3.74948C104.512 3.85533 104.738 4.11287 104.738 4.32232C104.738 4.73832 105.356 4.83321 107.809 4.79448C108.699 4.78028 110.59 4.8019 112.012 4.84224C116.544 4.97101 116.824 4.95584 116.951 4.57502C117.037 4.31587 117.224 4.34879 117.558 4.68249C118.166 5.28987 120.168 5.30246 121.594 4.70766C122.536 4.3149 122.774 4.3149 123.312 4.70766C124.076 5.26534 124.742 5.31666 124.201 4.77641C123.673 4.24939 123.714 3.87276 124.298 3.87276C124.565 3.87276 124.783 4.0906 124.783 4.35686C124.783 4.62311 125.038 4.85289 125.349 4.86709C125.66 4.88162 126.351 4.92777 126.885 4.96972C127.418 5.01168 127.961 4.89097 128.092 4.70153C128.251 4.4711 128.331 4.49047 128.335 4.76027C128.337 4.98231 128.667 5.16142 129.067 5.15884C129.573 5.15529 129.667 5.07299 129.375 4.88807C129.038 4.67475 129.049 4.54501 129.433 4.2268C129.822 3.90439 129.976 3.95215 130.262 4.4853C130.472 4.87677 130.807 5.06525 131.097 4.95423C131.363 4.85225 131.761 4.91615 131.981 5.09623C132.632 5.62906 133.698 5.6794 134.271 5.20467C134.618 4.91712 134.806 4.88871 134.806 5.12431C134.806 5.50868 135.85 5.6268 136.196 5.28148C136.662 4.81707 138.98 4.84741 139.246 5.3215C139.527 5.82334 140.912 5.96212 142.981 5.69586C143.654 5.60905 144.636 5.66165 145.163 5.81237C145.69 5.96341 146.121 5.96986 146.121 5.82689C146.121 5.68392 146.485 5.56709 146.93 5.56709C147.374 5.56709 147.738 5.74976 147.738 5.97309C147.738 6.45815 148.955 6.8422 149.102 6.40329C149.158 6.23515 149.747 5.97535 150.411 5.82592C151.494 5.58226 151.618 5.62099 151.618 6.2019C151.618 6.77475 151.757 6.82316 152.83 6.62307C153.497 6.49882 153.93 6.51043 153.792 6.64889C153.429 7.01357 155.581 7.68356 156.034 7.34727C156.254 7.18429 156.497 7.20914 156.619 7.40698C156.734 7.59319 157.378 7.74552 158.049 7.74552C158.72 7.74552 159.374 7.85009 159.502 7.97789C159.864 8.33935 163.046 8.34677 163.499 7.98757C163.789 7.75682 163.903 7.81846 163.903 8.20606C163.903 8.63755 164.211 8.74147 165.439 8.72436C166.283 8.71242 167.463 8.79665 168.061 8.91155C168.764 9.04645 169.233 8.98287 169.388 8.73179C169.573 8.43391 169.734 8.44391 170.08 8.77439C170.735 9.4008 172.208 9.99753 172.465 9.74096C172.867 9.33949 174.227 9.48278 174.405 9.94557C174.543 10.3035 174.679 10.318 175.047 10.0133C175.513 9.62704 176.328 9.84262 176.056 10.2802C175.931 10.4832 176.843 10.5281 178.048 10.3777C178.27 10.35 178.464 10.0731 178.478 9.76259C178.498 9.31109 178.541 9.29495 178.692 9.6819C178.795 9.94816 179.097 10.3254 179.362 10.5204C179.627 10.7153 179.749 11.0287 179.632 11.2165C179.501 11.4279 179.656 11.4969 180.038 11.3972C180.377 11.3088 181.183 11.4869 181.829 11.7929C182.476 12.0992 183.726 12.3499 184.608 12.3499C185.49 12.3499 186.211 12.4758 186.211 12.6294C186.211 12.7833 186.43 12.9092 186.696 12.9092C186.963 12.9092 187.181 12.7485 187.181 12.5519C187.181 12.3554 187.4 12.2783 187.666 12.3806C187.933 12.4826 188.151 12.4254 188.151 12.2537C188.151 11.7403 189.036 11.9 189.248 12.4516C189.538 13.2061 189.517 13.2319 188.613 13.2319C187.823 13.2319 187.81 13.2597 188.345 13.7938C188.746 14.194 188.946 14.2414 189.04 13.9584C189.131 13.6883 189.513 13.8203 190.236 14.3708C190.909 14.883 191.506 15.1015 191.86 14.966C192.191 14.8391 192.534 14.9353 192.7 15.2019C192.853 15.4497 193.239 15.6527 193.556 15.6527C193.873 15.6531 194.151 15.8348 194.173 16.0561C194.195 16.2779 194.231 16.5812 194.254 16.73C194.366 17.4868 197.204 18.0884 197.204 17.3555C197.204 17.1386 197.43 17.2841 197.708 17.6788C197.985 18.0739 198.132 18.5254 198.034 18.6822C197.799 19.063 198.453 19.5484 199.557 19.8118C200.092 19.9396 200.811 20.5398 201.335 21.2963C201.819 21.995 202.394 22.5721 202.613 22.5788C202.832 22.5856 203.11 22.9855 203.232 23.468C203.353 23.9501 203.72 24.6317 204.048 24.9829C204.452 25.4163 204.567 25.8342 204.406 26.2848C204.276 26.6494 204.201 27.5202 204.24 28.2192C204.279 28.9186 204.094 29.8209 203.829 30.225C203.564 30.629 203.347 31.1822 203.347 31.4549C203.347 31.7273 203.201 31.9138 203.023 31.8696C202.845 31.8251 202.515 32.152 202.29 32.5957C202.064 33.0395 201.556 33.5459 201.159 33.7211C200.762 33.8963 200.437 34.2885 200.437 34.5925C200.437 34.8968 200.231 35.2615 199.98 35.4035C199.729 35.5455 199.474 36.0974 199.414 36.6299C199.335 37.335 199.128 37.6071 198.654 37.631C197.8 37.6742 196.272 38.4852 195.271 39.4263C194.831 39.8407 194.433 40.1476 194.386 40.1079C194.147 39.9059 191.143 41.2533 190.5 41.8513C190.275 42.0604 190.091 42.4042 190.091 42.6149C190.091 42.8344 189.825 42.9289 189.469 42.836C189.128 42.7469 188.397 42.9476 187.845 43.2826C187.294 43.6173 186.633 43.8913 186.377 43.8913C186.12 43.8913 185.372 44.3631 184.714 44.9395C184.057 45.5162 183.252 45.9426 182.925 45.8874C182.507 45.8167 182.332 45.9858 182.332 46.4589C182.332 47.0256 182.197 47.097 181.47 46.915C180.757 46.7365 180.644 46.791 180.813 47.2316C180.95 47.5875 180.849 47.7641 180.509 47.7641C180.189 47.7641 180.069 47.584 180.186 47.28C180.312 46.9508 180.168 46.7959 179.735 46.7959C179.385 46.7959 179.099 46.9169 179.099 47.0647C179.099 47.2128 178.917 47.3584 178.695 47.3887C175.141 47.8725 173.35 48.5554 173.217 49.4777C173.128 50.1042 173.071 50.1232 172.646 49.6675C172.166 49.1515 172.149 49.1531 169.345 50.0074C168.692 50.2062 167.613 50.4385 166.947 50.5234C166.281 50.6086 165.569 50.8171 165.364 50.9865C165.16 51.1559 164.129 51.3899 163.074 51.5064C162.009 51.6239 160.475 52.0799 159.628 52.5311C158.402 53.1837 158.008 53.2666 157.628 52.9519C157.282 52.6657 156.981 52.6531 156.509 52.9055C156.154 53.0952 155.367 53.2505 154.76 53.2505C154.153 53.2505 153.206 53.4751 152.654 53.7497C152.037 54.0573 150.386 54.31 148.357 54.4075C146.545 54.4946 144.812 54.7002 144.504 54.8644C144.197 55.0284 142.944 55.1862 141.72 55.2152C140.495 55.2443 138.908 55.4621 138.193 55.6997C137.477 55.9369 135.949 56.1573 134.798 56.1896C133.332 56.2309 132.476 56.4252 131.945 56.8383C131.285 57.3504 131.124 57.3672 130.721 56.9651C130.384 56.6282 130.043 56.5833 129.471 56.8005C129.038 56.9648 128.134 57.0877 127.461 57.0738C126.788 57.06 126.092 57.08 125.915 57.1184C125.737 57.1571 125.133 57.1639 124.573 57.1339C124.013 57.1039 123.459 57.2346 123.342 57.424C123.224 57.6135 122.791 57.7687 122.379 57.7687C121.966 57.7687 121.451 57.9823 121.234 58.2437C120.909 58.6355 120.765 58.6446 120.416 58.296C119.89 57.7716 116.186 57.9023 115.502 58.4693C115.136 58.773 114.977 58.7643 114.769 58.428C114.571 58.1076 113.597 58.0133 110.911 58.0546C106.984 58.115 105.713 58.4171 105.698 59.2936C105.689 59.8242 105.662 59.8219 105.337 59.2629C105.053 58.7746 104.931 58.744 104.7 59.1016C104.476 59.4485 104.376 59.402 104.233 58.8847C104.11 58.4374 103.746 58.2024 103.101 58.1534C102.579 58.1137 102.152 58.2095 102.152 58.3667C102.152 58.5239 101.715 58.6013 101.182 58.5394C100.648 58.4774 100.212 58.5584 100.212 58.7194C100.212 59.138 99.2211 59.2975 98.2451 59.0364C97.6169 58.8682 97.3159 58.9634 97.0301 59.4204C96.8209 59.7544 96.4038 60.0278 96.1032 60.0278C95.6777 60.0278 95.6424 59.9416 95.9441 59.6405C96.7666 58.8195 96.3188 58.5758 94.0634 58.6165C92.8158 58.6388 91.7191 58.5355 91.627 58.3864C91.3813 57.9894 89.9193 58.7398 89.7566 59.3465C89.6448 59.7654 89.6102 59.7512 89.5801 59.2733C89.5465 58.7437 89.2739 58.6891 87.037 58.7669C85.6591 58.8147 84.209 58.9673 83.8152 59.1058C83.3936 59.2542 83.0147 59.221 82.8935 59.0254C82.7803 58.8424 82.4658 58.7779 82.1945 58.8818C81.9232 58.9857 81.5379 58.9441 81.3381 58.7892C80.2896 57.9759 78.9029 58.2625 78.4664 59.3823C78.3168 59.767 78.2728 59.7493 78.2524 59.2965C78.2343 58.8928 77.9679 58.7304 77.3378 58.7401C76.8489 58.7472 76.0895 58.7133 75.6504 58.6643C74.7707 58.5665 74.2864 59.5915 75.0035 60.0336C75.2214 60.1682 75.3 60.4399 75.1778 60.6371C74.857 61.1551 74.3472 61.0783 74.3472 60.5119C74.3472 60.2456 74.1965 60.0278 74.0126 60.0278C73.7911 60.0278 73.8008 59.7983 74.0417 59.3491C74.3921 58.6952 74.3456 58.6749 72.7594 58.7843C71.5247 58.8698 71.1138 58.7875 71.1138 58.4555C71.1141 58.0982 71.02 58.0901 70.6292 58.4141C70.335 58.6578 70.1442 58.6836 70.1442 58.4797C70.1442 58.2828 69.3065 58.1418 68.1235 58.1395C67.0123 58.1372 64.4786 58.0869 62.4938 58.0278C60.5087 57.9691 58.952 58.0301 59.0347 58.1637C59.2352 58.4871 58.209 58.0992 57.2611 57.4928C56.7105 57.141 56.3552 57.099 55.9678 57.3401C55.6701 57.5257 55.1476 57.5612 54.7871 57.4208C53.8347 57.0493 51.4111 57.0768 49.9737 57.4753C49.0264 57.7377 48.6575 57.7283 48.4771 57.4372C48.341 57.2171 47.4196 57.0312 46.3394 57.0061C44.7665 56.9696 44.3168 57.0861 43.7139 57.688C42.8089 58.5913 42.1859 58.6517 42.7291 57.7832C43.1869 57.0516 42.8348 56.5 42.2696 57.0642C41.7126 57.6202 41.2189 57.5324 41.6932 56.9619C41.9147 56.6956 42.0414 56.4703 41.9751 56.4613C41.9092 56.4526 40.935 56.3645 39.8109 56.2657C37.9781 56.1047 37.6813 56.1644 36.9364 56.8466L36.1058 57.6073L36.3192 56.7198C36.5516 55.7529 36.573 55.7642 34.338 55.6697C33.5821 55.6374 32.9639 55.7439 32.9639 55.9062C32.9639 56.0685 32.7353 55.973 32.456 55.6939C32.1763 55.415 31.6914 55.1868 31.3781 55.1868C31.0648 55.1868 30.7156 55.0939 30.6018 54.9806C30.4883 54.867 29.8456 54.7373 29.1741 54.6924C26.0726 54.4839 24.093 54.1803 23.6966 53.852C23.3766 53.5867 23.1299 53.6058 22.7448 53.925C22.3045 54.2897 22.1609 54.2684 21.8075 53.7859C21.4939 53.3579 21.3478 53.3208 21.2204 53.6368C21.0872 53.9666 20.9899 53.9714 20.7684 53.6597C20.6129 53.4412 20.1477 53.3273 19.7345 53.4067C19.321 53.4864 18.1694 53.266 17.1749 52.9171C16.1807 52.5679 15.107 52.3649 14.7895 52.4656C14.4355 52.5776 14.2102 52.484 14.2072 52.2232C14.2034 51.9102 14.1177 51.9257 13.8814 52.2823C13.6069 52.6967 13.4795 52.6637 12.9974 52.0547C12.6874 51.6636 11.5975 51.0262 10.5749 50.6383C9.55228 50.2507 8.71588 49.8376 8.71588 49.7204C8.71588 49.6033 8.20667 49.5665 7.58431 49.6391C6.5439 49.7605 6.45273 49.7024 6.45273 48.9207C6.45273 48.2298 6.26683 48.0335 5.45824 47.8722C4.75634 47.7321 4.21706 47.2835 3.62509 46.3473C3.16373 45.6176 2.8207 44.9715 2.86273 44.9108C2.90508 44.8501 2.72888 44.6323 2.47121 44.4267C2.21385 44.2211 1.91221 43.2194 1.80067 42.2012C1.62285 40.5727 1.67652 40.3009 2.24748 39.945C2.60441 39.7226 2.89636 39.2124 2.89636 38.8112C2.89636 38.4104 3.03505 38.0822 3.20447 38.0822C3.37388 38.0822 3.75441 37.5739 4.04959 36.9526C4.34477 36.3313 4.78835 35.823 5.03471 35.823C5.28107 35.823 5.48281 35.6401 5.48281 35.4167C5.48281 35.1931 5.77379 34.8287 6.12942 34.607C6.48506 34.3853 6.77604 33.9315 6.77604 33.5988C6.77604 33.2535 7.07057 32.9169 7.46274 32.8146C8.01495 32.6703 8.10871 32.4737 7.94156 31.8086C7.73852 31.0018 8.15462 30.6597 8.55423 31.3048C8.66415 31.4823 8.87527 31.6275 9.02367 31.6275C9.42554 31.6275 9.72266 30.6565 9.45237 30.2269C9.32305 30.021 9.25871 29.5985 9.31012 29.2878C9.3612 28.9773 9.23996 28.723 9.04048 28.723C8.841 28.723 8.76502 28.864 8.87171 29.0363C8.9784 29.2087 8.70133 29.4407 8.25581 29.5524C7.8103 29.6641 7.35799 30.0313 7.25065 30.3686C7.14364 30.7062 6.92023 30.9821 6.75438 30.9821C6.58852 30.9821 6.45273 31.1589 6.45273 31.3752C6.45273 31.5914 6.06573 32.1003 5.59306 32.506C5.12006 32.9114 4.57367 33.5697 4.37904 33.9683C4.18441 34.3672 3.5559 34.9113 2.98268 35.1776C2.40849 35.4442 1.93743 35.9108 1.93355 36.2164C1.92902 36.5756 1.75541 36.7054 1.44147 36.5853C0.87892 36.3697 0.830424 36.7406 1.26947 37.894C1.52877 38.574 1.47122 38.7754 0.937115 39.0607C0.582124 39.2504 0.381027 39.5496 0.490305 39.7261C0.599583 39.9023 0.503237 40.2699 0.276276 40.543C-0.0305426 40.9122 -0.0454146 41.1842 0.218727 41.6067C0.436313 41.9539 0.461854 42.3506 0.285328 42.6291C-0.107813 43.2491 -0.090031 44.8595 0.3099 44.8595C0.487718 44.8595 0.644846 45.259 0.658748 45.747C0.67265 46.235 0.75768 46.4531 0.847236 46.2311C1.059 45.7079 1.5417 45.7079 1.49579 46.2311C1.43598 46.912 2.66681 49.055 3.11782 49.055C3.35157 49.055 3.54297 49.2593 3.54297 49.5087C3.54297 49.7937 3.76864 49.9038 4.14852 49.8047C4.563 49.6966 4.97748 49.9602 5.46374 50.6418C5.85397 51.1892 6.45467 51.6368 6.79802 51.6368C7.1417 51.6368 7.42265 51.8547 7.42265 52.1209C7.42265 52.3872 7.64088 52.605 7.90761 52.605C8.17434 52.605 8.39257 52.7625 8.39257 52.9545C8.39257 53.1469 8.5746 53.2376 8.79671 53.1562C9.01914 53.0749 9.16625 52.8503 9.12389 52.657C9.08154 52.4636 9.26356 52.3885 9.52803 52.4898C9.79249 52.5911 10.0091 52.86 10.0091 53.0868C10.0091 53.4896 11.8562 54.5414 12.5636 54.5414C12.7592 54.5414 12.9189 54.6647 12.9189 54.8151C12.9189 54.9655 13.3699 55.1013 13.9214 55.1171C14.4727 55.1326 15.183 55.3798 15.4998 55.6661C15.8865 56.0153 16.354 56.1166 16.9221 55.9743C17.4187 55.8501 17.7685 55.8978 17.7685 56.0898C17.7685 56.2699 18.0595 56.3412 18.4151 56.2486C19.1448 56.0579 19.2631 55.6445 18.6576 55.4005C18.4355 55.3111 18.5809 55.2262 18.9809 55.2123C19.4015 55.1975 19.7083 55.3776 19.7083 55.6393C19.7083 56.1783 21.5088 56.9467 22.5373 56.8466C22.9372 56.8079 23.2647 56.9112 23.2647 57.0764C23.2647 57.5757 24.2863 57.8048 24.7606 57.4121C25.1043 57.1271 25.2045 57.1565 25.2045 57.5421C25.2045 57.9184 25.6982 58.0843 27.2252 58.2212C28.3367 58.3209 29.6604 58.3867 30.1673 58.368C30.9975 58.337 31.0709 58.2444 30.9086 57.4347C30.7819 56.8024 30.876 56.4797 31.2261 56.3454C31.9814 56.0563 32.081 56.1086 31.8621 56.6782C31.7075 57.0803 31.8116 57.1616 32.3124 57.0309C33.1427 56.8144 33.1492 57.17 32.326 57.7622C31.7386 58.185 31.7292 58.2663 32.2051 58.7914C32.5698 59.1935 32.8818 59.2762 33.2646 59.0719C33.572 58.9073 34.0027 58.9028 34.2591 59.0609C34.5077 59.2142 34.8152 59.2758 34.9419 59.1974C35.069 59.119 35.585 59.2129 36.089 59.4062C36.593 59.5995 37.7327 59.8225 38.6218 59.9023C39.5109 59.9816 40.5112 60.1307 40.8445 60.2334C41.2393 60.3547 41.3738 60.295 41.2296 60.0623C40.8979 59.5266 41.5532 59.6321 42.0165 60.1892C42.5849 60.873 42.9864 60.7898 42.9864 59.9884C42.9864 59.4872 43.095 59.3881 43.3905 59.6186C43.613 59.7922 44.2677 60.093 44.8454 60.2869C45.8315 60.6181 45.8962 60.5932 45.8962 59.8874C45.8962 59.4065 46.1293 59.0741 46.5418 58.9663C47.0497 58.8337 47.128 58.9037 46.9088 59.2949C46.4206 60.1653 47.5932 60.9602 49.3533 60.9524C50.2081 60.9485 51.5266 61.087 52.2834 61.2597C53.0868 61.443 53.7338 61.4536 53.8382 61.2848C53.9365 61.126 53.8628 60.996 53.6746 60.996C53.4865 60.996 53.3322 60.8827 53.3322 60.7439C53.3322 60.3454 55.1631 59.7612 55.5889 60.0239C55.8411 60.1795 55.7137 60.3337 55.2187 60.4728L54.4638 60.6846L55.1997 61.3023C56.134 62.0865 60.6972 62.2017 60.9869 61.4485C61.218 60.8472 61.7382 60.8692 61.7382 61.4801C61.7382 61.7776 62.0412 61.9642 62.5248 61.9642C63.1866 61.9642 63.3072 61.8128 63.2843 61.0121C63.2645 60.3163 63.0819 60.0339 62.606 59.9633C62.0382 59.8787 62.0172 59.8151 62.4434 59.465C62.8565 59.1251 63.0512 59.2952 63.7091 60.5726L64.4863 62.0817L64.6696 61.1354C64.7705 60.6148 64.7401 59.8693 64.6027 59.4785C64.4087 58.9279 64.4585 58.8085 64.8235 58.9483C65.0825 59.0473 65.2969 59.2946 65.2994 59.4976C65.3024 59.7183 65.4178 59.6876 65.5869 59.4217C65.9839 58.7959 66.6551 59.3075 66.4174 60.0549C66.3095 60.3951 66.3664 60.6733 66.5442 60.6733C66.722 60.6733 66.9599 60.9637 67.0728 61.3187C67.1856 61.6737 67.4863 61.9642 67.7411 61.9642C67.9958 61.9642 68.2044 62.1094 68.2044 62.2869C68.2044 62.7171 69.3754 62.6977 70.2066 62.2537C70.7184 61.9803 70.9373 61.999 71.1503 62.3344C71.3657 62.6735 71.4287 62.6451 71.4326 62.2062C71.4384 61.533 72.3136 61.4649 73.0284 62.082C73.3094 62.324 74.0847 62.6054 74.7513 62.7071C75.697 62.851 75.9637 62.7849 75.9637 62.4063C75.9637 61.9193 76.7494 62.0055 77.8864 62.6164C78.1438 62.7549 78.6844 62.7429 79.0875 62.5896C79.5275 62.4228 79.8974 62.4357 80.0128 62.6219C80.2947 63.0773 82.3529 63.0008 82.512 62.529C82.6103 62.2379 82.7748 62.2204 83.1046 62.4663C83.3558 62.6542 84.3972 62.8439 85.4188 62.8885C87.0616 62.9598 87.3668 62.8717 88.0609 62.1239L88.8459 61.2787L88.9516 62.0249C89.0512 62.7258 89.185 62.7668 91.1592 62.701C92.315 62.6626 93.4061 62.6161 93.584 62.5974C93.7618 62.579 95.8937 62.6642 98.3217 62.7862C102.463 62.9947 102.746 62.9714 102.891 62.4057C103.028 61.8735 103.051 61.869 103.084 62.3676C103.117 62.8714 103.478 63.0753 104.158 62.9753C104.65 62.9027 114.004 62.5406 114.841 62.5616C115.33 62.5738 115.73 62.4479 115.73 62.2817C115.73 62.0991 116.028 62.0929 116.485 62.2666C116.9 62.4241 117.432 62.4337 117.668 62.2882C117.906 62.1414 118.34 62.1743 118.641 62.3621C118.978 62.5725 119.662 62.6019 120.448 62.4396C121.143 62.2959 121.844 62.2104 122.005 62.2495C122.167 62.2888 122.403 62.153 122.53 61.948C122.704 61.6663 122.931 61.666 123.455 61.9458C123.837 62.1497 124.282 62.2349 124.444 62.1352C124.606 62.0355 125.649 61.8829 126.763 61.7967C127.876 61.7102 128.882 61.4875 128.997 61.3016C129.112 61.1157 129.484 60.9689 129.823 60.9757C130.674 60.9921 131.627 60.9905 132.3 60.9718C132.611 60.9631 132.866 60.7472 132.866 60.4919C132.866 60.2366 133.084 60.0278 133.351 60.0278C133.617 60.0278 133.836 60.173 133.836 60.3505C133.836 60.528 134.045 60.6733 134.3 60.6733C134.631 60.6733 134.76 60.296 134.747 59.3668C134.737 58.6481 134.819 57.9704 134.929 57.8607C135.039 57.7509 135.129 58.0414 135.129 58.5064C135.129 59.4508 135.747 60.996 136.124 60.996C136.73 60.996 137.392 60.5664 137.392 60.1737C137.392 59.4469 138.113 59.2513 138.557 59.8577C139.055 60.5377 140.142 60.2737 139.86 59.5411C139.753 59.2597 139.858 59.0596 140.116 59.0596C140.358 59.0596 140.64 59.2775 140.742 59.5437C140.844 59.81 141.26 60.011 141.666 59.9904C142.213 59.9626 142.257 59.9148 141.838 59.8054C141.181 59.6341 141.071 59.0596 141.695 59.0596C141.928 59.0596 142.4 59.2655 142.745 59.5169C143.187 59.84 143.491 59.8758 143.776 59.6389C144.062 59.4027 144.181 59.4149 144.181 59.6802C144.181 59.9303 144.535 59.991 145.232 59.8609C146.354 59.6515 146.735 59.5869 150.001 59.0525C151.157 58.8631 152.393 58.5749 152.749 58.4112C153.105 58.2479 153.759 58.1295 154.204 58.1482C155.36 58.1973 157.544 57.7668 157.906 57.4188C158.075 57.2562 158.489 57.1232 158.826 57.1232C159.163 57.1232 159.825 56.8521 160.297 56.5204C160.882 56.1099 161.361 55.9998 161.802 56.175C162.824 56.582 163.252 56.5197 163.05 55.9937C162.932 55.6871 163.055 55.5096 163.384 55.5096C163.669 55.5096 163.903 55.6548 163.903 55.8323C163.903 56.0098 164.121 56.155 164.388 56.155C164.961 56.155 164.967 56.1195 164.558 55.0465C164.353 54.5085 164.353 54.2187 164.558 54.2187C164.731 54.2187 164.873 54.4365 164.873 54.7028C164.873 54.969 165.152 55.1868 165.493 55.1868C165.834 55.1868 166.161 55.3276 166.22 55.4996C166.283 55.6829 166.945 55.5909 167.816 55.2775C168.942 54.8725 169.394 54.5036 169.674 53.7623L170.045 52.7825L170.537 53.4838C171.006 54.1515 171.093 54.1628 172.35 53.72C173.077 53.4641 173.78 53.3221 173.913 53.4044C174.047 53.4864 174.09 53.2121 174.01 52.7944C173.868 52.0486 174.588 51.2005 174.807 51.8566C174.869 52.0406 175.108 52.4485 175.339 52.7635C175.709 53.2689 175.907 53.2898 177.024 52.9423C177.721 52.7257 178.907 52.271 179.661 51.9315C180.415 51.592 181.254 51.3141 181.526 51.3141C181.799 51.3141 182.597 50.951 183.302 50.5073C184.006 50.0635 184.793 49.7004 185.05 49.7004C185.308 49.7004 185.711 49.5187 185.946 49.297C186.181 49.0753 186.862 48.8546 187.458 48.8071C188.056 48.7594 188.852 48.5054 189.228 48.2423C189.604 47.9793 190.17 47.7641 190.486 47.7641C190.802 47.7641 191.061 47.5462 191.061 47.28C191.061 47.0085 191.349 46.7959 191.718 46.7959C192.079 46.7959 192.458 46.578 192.561 46.3118C192.663 46.0455 193.098 45.8277 193.528 45.8277C194.065 45.8277 194.407 45.5743 194.617 45.0208C194.918 44.2315 195.587 43.8974 195.587 44.5368C195.587 45.0141 196.211 44.9285 196.765 44.3754C197.032 44.1091 197.496 43.8913 197.797 43.8913C198.098 43.8913 198.487 43.5763 198.663 43.1916C198.838 42.8066 199.272 42.3348 199.626 42.1427C199.981 41.9507 200.592 41.4669 200.985 41.0674C201.378 40.6682 201.815 40.3351 201.957 40.3277C202.099 40.32 202.579 39.8578 203.023 39.3001C203.468 38.7425 204.233 37.9056 204.723 37.4409C205.912 36.3129 207.803 32.5247 206.897 33.0834C206.243 33.4871 206.473 31.9616 207.307 30.3628C207.809 29.4007 208.105 28.5293 207.965 28.4264C207.825 28.3231 207.711 27.2342 207.711 26.0066C207.71 24.5101 207.577 23.7297 207.307 23.6397C207.084 23.5658 206.903 23.3153 206.903 23.0829C206.903 22.8503 206.698 22.5817 206.448 22.4862C206.199 22.3904 205.897 21.8682 205.777 21.3257C205.658 20.7832 205.426 20.2565 205.262 20.1551C205.097 20.0541 204.958 19.653 204.952 19.2641C204.945 18.8752 204.618 18.1881 204.224 17.7372C203.244 16.6145 201.084 15.0583 201.084 15.4746C201.084 15.6611 200.865 15.8138 200.599 15.8138C200.332 15.8138 200.114 15.6918 200.114 15.543C200.114 15.3939 199.75 15.1063 199.305 14.9043C198.861 14.702 198.494 14.2795 198.489 13.9649C198.481 13.3807 196.644 12.2637 195.69 12.2637C195.406 12.2637 194.967 12.0094 194.713 11.699C194.397 11.3107 194.203 11.2539 194.092 11.5176C193.982 11.7771 193.719 11.6899 193.276 11.2475C192.821 10.7937 192.383 10.654 191.841 10.7895C191.404 10.8992 191.061 10.8424 191.061 10.6604C191.061 10.1337 188.742 8.83183 187.343 8.57268C186.632 8.44101 185.901 8.21025 185.718 8.06018C185.049 7.50832 181.672 6.55691 179.311 6.25548C178.572 6.16124 177.494 5.96115 176.916 5.81108C176.205 5.62648 175.866 5.6523 175.866 5.89144C175.866 6.0854 175.538 5.94243 175.138 5.57323C174.682 5.15206 173.809 4.84289 172.794 4.74252C171.905 4.65441 170.45 4.41979 169.561 4.22066C168.672 4.02186 167.102 3.80241 166.072 3.7327C165.042 3.66331 164.023 3.46677 163.809 3.29604C163.594 3.12532 162.4 2.97234 161.155 2.95589C158.925 2.92652 158.395 2.86036 157.437 2.49341C156.567 2.16003 153.557 2.02384 153.557 2.31785C153.557 2.47566 153.289 2.46114 152.96 2.28557C152.55 2.06612 152.247 2.08258 151.99 2.33883C151.709 2.61992 151.618 2.60088 151.618 2.26201C151.618 1.93509 151.507 1.96414 151.211 2.36852C150.751 2.99526 149.45 2.93555 149.037 2.26911C148.86 1.9835 148.437 1.90992 147.755 2.04611C147.062 2.18424 146.805 2.13744 146.953 1.89927C147.088 1.67981 146.893 1.69691 146.428 1.94509C145.815 2.27267 145.624 2.25459 145.321 1.84085C144.993 1.39226 144.917 1.39645 144.587 1.88055C144.246 2.3811 144.218 2.37917 144.201 1.8557C144.19 1.54523 144.145 1.27769 144.101 1.26155C144.056 1.24574 142.574 1.16828 140.807 1.08986C139.04 1.01111 137.416 0.799403 137.199 0.619319C136.928 0.394699 136.731 0.407286 136.576 0.658692C136.427 0.898158 135.939 0.944631 135.173 0.79198C133.171 0.393085 131.896 0.425681 131.896 0.87589C131.896 1.10406 131.75 1.29092 131.573 1.29092C131.395 1.29092 131.286 1.12762 131.33 0.927849C131.375 0.728079 131.047 0.525405 130.603 0.477318C130.158 0.429231 129.467 0.285293 129.067 0.157169C128.516 -0.0187185 128.339 0.0516366 128.339 0.446336C128.339 0.733565 128.509 0.96819 128.717 0.96819C128.924 0.96819 128.985 1.07695 128.852 1.20959C128.719 1.34256 128.427 1.20152 128.203 0.896222C127.651 0.141679 126.144 0.0887509 124.827 0.777457C123.97 1.22508 123.661 1.26155 123.372 0.948181C123.095 0.648365 123.104 0.606733 123.409 0.778425C123.657 0.918167 123.813 0.811989 123.813 0.503136C123.813 0.226557 123.627 0 123.4 0C122.898 0 121.537 0.879117 120.984 1.56105C120.633 1.99479 120.58 1.96478 120.58 1.33094C120.58 0.748734 120.45 0.643201 119.933 0.806825C119.473 0.952699 119.287 0.864917 119.287 0.500877C119.287 0.126833 119.005 0.00613174 118.236 0.0506685C117.658 0.0845552 116.95 0.226879 116.662 0.367267C116.374 0.507655 116.051 0.534764 115.943 0.427294C115.835 0.319503 114.412 0.190088 112.781 0.139419C110.538 0.0700322 109.631 0.168142 109.058 0.542832C108.423 0.958508 108.273 0.965931 108.129 0.589305C107.947 0.117797 106.759 0.0351773 106.09 0.447626C105.874 0.580914 105.766 0.801662 105.851 0.937854C105.935 1.07405 105.806 1.46907 105.563 1.81503C105.186 2.35206 104.11 2.55021 103.122 2.26492C102.848 2.18617 104.558 1.50844 104.859 1.57654C105.014 1.61139 105.05 1.40452 104.939 1.11632C104.829 0.828448 104.738 0.458277 104.738 0.29433C104.738 0.121024 103.687 0.0751961 102.232 0.184924C99.2771 0.407608 99.3298 0.408254 98.1911 0.136837C97.5108 -0.0254958 97.302 0.0429229 97.302 0.427294C97.302 0.872662 97.2008 0.877181 96.4129 0.466991C95.1956 -0.166851 92.7763 -0.125865 91.8171 0.544768C91.2645 0.931076 91.0007 0.977872 90.9099 0.706133C90.722 0.143615 89.045 0.23882 88.5452 0.840067C88.154 1.31061 88.069 1.3006 87.6054 0.729048C87.1721 0.194929 87.0328 0.168143 86.6746 0.550901ZM90.8358 1.45229C90.8358 1.71854 90.6904 1.95445 90.5125 1.97672C90.3347 1.99899 90.0386 2.03514 89.8543 2.0574C89.6697 2.07967 89.381 2.31559 89.2125 2.58184C88.7777 3.26829 88.7935 2.40757 89.2306 1.59235C89.6247 0.857171 90.8358 0.751638 90.8358 1.45229ZM73.7006 2.0787C73.7006 2.15713 73.5551 2.31075 73.3773 2.42048C73.1994 2.5302 73.054 2.46598 73.054 2.27815C73.054 2.09032 73.1994 1.93638 73.3773 1.93638C73.5551 1.93638 73.7006 2.00028 73.7006 2.0787ZM64.1772 3.84985C63.8594 4.36331 63.3473 3.94505 63.5733 3.35672C63.6978 3.03302 63.874 2.97105 64.0809 3.1776C64.2552 3.35155 64.2985 3.65395 64.1772 3.84985ZM143.212 3.38867C143.212 3.65492 142.998 3.87276 142.737 3.87276C142.448 3.87276 142.335 3.68364 142.448 3.38867C142.55 3.12241 142.764 2.90457 142.923 2.90457C143.082 2.90457 143.212 3.12241 143.212 3.38867ZM146.583 3.14662C146.422 3.27991 146.182 3.53389 146.049 3.7114C145.912 3.89567 145.806 3.79176 145.803 3.46935C145.8 3.15533 146.037 2.90457 146.337 2.90457C146.633 2.90457 146.744 3.01333 146.583 3.14662ZM62.7081 3.87276C62.7081 4.05026 62.5627 4.19549 62.3848 4.19549C62.207 4.19549 62.0615 4.05026 62.0615 3.87276C62.0615 3.69526 62.207 3.55003 62.3848 3.55003C62.5627 3.55003 62.7081 3.69526 62.7081 3.87276ZM72.9663 3.74496C72.859 3.85211 72.58 3.86372 72.3469 3.77046C72.0889 3.6675 72.1655 3.59102 72.5422 3.57553C72.8829 3.56165 73.0737 3.63781 72.9663 3.74496ZM151.618 4.22002C151.618 4.37267 151.399 4.4143 151.133 4.31232C150.866 4.21001 150.648 4.00121 150.648 3.84823C150.648 3.69558 150.866 3.65395 151.133 3.75593C151.399 3.85824 151.618 4.06704 151.618 4.22002ZM158.407 3.87276C158.407 4.05026 158.152 4.19323 157.841 4.19065C157.358 4.18645 157.346 4.13998 157.76 3.87276C158.37 3.47903 158.407 3.47903 158.407 3.87276ZM56.727 4.51822C56.8369 4.69572 56.7725 4.84095 56.5844 4.84095C56.3962 4.84095 56.242 4.69572 56.242 4.51822C56.242 4.34072 56.306 4.19549 56.3846 4.19549C56.4631 4.19549 56.617 4.34072 56.727 4.51822ZM141.272 4.51822C141.272 4.69572 141.118 4.84095 140.929 4.84095C140.741 4.84095 140.677 4.69572 140.787 4.51822C140.897 4.34072 141.051 4.19549 141.129 4.19549C141.208 4.19549 141.272 4.34072 141.272 4.51822ZM149.34 5.3073C149.634 5.66101 149.647 5.80914 149.384 5.80914C149.179 5.80914 148.927 5.5913 148.825 5.32505C148.722 5.05879 148.436 4.84095 148.188 4.84095C147.941 4.84095 147.738 4.69056 147.738 4.50693C147.738 4.08899 148.745 4.59213 149.34 5.3073ZM145.064 4.71315C144.956 4.8203 144.677 4.83191 144.444 4.73865C144.186 4.63569 144.263 4.55921 144.64 4.54372C144.98 4.52984 145.171 4.606 145.064 4.71315ZM50.3148 5.70167C49.8935 6.12187 50.1079 6.77733 50.665 6.77249C51.1124 6.76862 51.1376 6.70859 50.7852 6.48558C50.5402 6.33067 50.4396 6.04248 50.5618 5.84529C50.8062 5.45059 50.6546 5.36248 50.3148 5.70167ZM157.026 6.64953C156.919 6.75668 156.64 6.7683 156.407 6.67503C156.149 6.57208 156.225 6.49559 156.602 6.4801C156.943 6.46622 157.133 6.54238 157.026 6.64953ZM158.084 7.10006C158.084 7.27756 157.938 7.42279 157.76 7.42279C157.583 7.42279 157.437 7.27756 157.437 7.10006C157.437 6.92256 157.583 6.77733 157.76 6.77733C157.938 6.77733 158.084 6.92256 158.084 7.10006ZM161.64 7.26143C161.64 7.52768 161.495 7.74552 161.317 7.74552C161.139 7.74552 160.993 7.52768 160.993 7.26143C160.993 6.99517 161.139 6.77733 161.317 6.77733C161.495 6.77733 161.64 6.99517 161.64 7.26143ZM170.693 7.92593C170.693 8.20251 170.547 8.33935 170.369 8.22962C170.192 8.11989 170.046 7.89366 170.046 7.72648C170.046 7.55931 170.192 7.42279 170.369 7.42279C170.547 7.42279 170.693 7.64935 170.693 7.92593ZM182.655 10.8115C182.655 11.0777 182.437 11.2956 182.17 11.2956C181.903 11.2956 181.685 11.0777 181.685 10.8115C181.685 10.5452 181.903 10.3274 182.17 10.3274C182.437 10.3274 182.655 10.5452 182.655 10.8115ZM193.861 13.6353C193.772 13.8574 193.699 13.6757 193.699 13.2319C193.699 12.7882 193.772 12.6068 193.861 12.8285C193.951 13.0506 193.951 13.4136 193.861 13.6353ZM41.5315 17.4274C41.4216 17.6049 41.4859 17.7502 41.6741 17.7502C41.8623 17.7502 42.0165 17.6049 42.0165 17.4274C42.0165 17.2499 41.9525 17.1047 41.8739 17.1047C41.7954 17.1047 41.6415 17.2499 41.5315 17.4274ZM37.218 18.7183C37.218 19.1621 37.2914 19.3438 37.3809 19.1218C37.4708 18.9 37.4708 18.537 37.3809 18.3149C37.2914 18.0932 37.218 18.2746 37.218 18.7183ZM30.4376 19.1101C29.9339 19.613 29.9462 20.1022 30.4583 19.917C30.6807 19.8366 31.1078 19.9838 31.4078 20.2442C31.7079 20.505 32.1078 20.6225 32.2969 20.5059C32.7576 20.2216 32.7347 19.6865 32.262 19.6865C32.0538 19.6865 31.6442 19.4706 31.3522 19.207C30.9426 18.8368 30.7334 18.8148 30.4376 19.1101ZM26.0891 20.525C25.9827 20.6312 25.9737 20.9207 26.0691 21.1688C26.2081 21.5306 25.9559 21.5806 24.7962 21.4219C23.8754 21.296 23.2689 21.3554 23.1266 21.5848C23.0038 21.7833 23.0575 21.9456 23.2456 21.9456C23.4338 21.9456 23.588 22.2906 23.588 22.7121C23.588 23.3147 23.761 23.4786 24.3963 23.4786C24.9656 23.4786 25.2045 23.3031 25.2045 22.8848C25.2045 22.2313 26.1049 21.6274 26.7406 21.855C27.0109 21.9518 27.0729 21.8127 26.9281 21.4357C26.78 21.051 26.8314 20.9458 27.0894 21.1049C27.2976 21.2334 27.4677 21.2001 27.4677 21.031C27.4677 20.8619 27.2375 20.6357 26.9562 20.5279C26.3287 20.2875 26.3267 20.2875 26.0891 20.525ZM28.1143 21.2166C28.1143 21.8117 28.7118 22.0089 29.3241 21.6161C29.7826 21.3218 29.7906 21.2824 29.3661 21.4119C29.0765 21.5003 28.6765 21.4096 28.477 21.2105C28.209 20.9429 28.1143 20.9445 28.1143 21.2166ZM21.1632 22.2684C21.0533 22.4459 21.1176 22.5911 21.3058 22.5911C21.4939 22.5911 21.6482 22.797 21.6482 23.0484C21.6482 23.711 22.395 23.8604 22.8211 23.283C23.0963 22.9103 23.082 22.6853 22.7632 22.3675C22.2618 21.8666 21.4432 21.8159 21.1632 22.2684ZM18.9809 23.1362C18.6695 23.2175 18.4151 23.5461 18.4151 23.8662C18.4151 24.1864 18.1697 24.6479 17.8697 24.8915C17.3947 25.2769 17.3501 25.2646 17.526 24.7963C17.6459 24.4759 17.5399 24.1864 17.2631 24.0802C17.0077 23.9824 16.7986 24.0431 16.7986 24.2148C16.7986 24.3868 16.5803 24.5275 16.3136 24.5275C16.0469 24.5275 15.8286 24.6682 15.8286 24.8402C15.8286 25.0119 15.6253 25.0748 15.3763 24.9793C14.6541 24.7027 14.5635 25.2785 15.2234 25.9556C15.7572 26.5036 15.8286 26.5132 15.8286 26.0363C15.8286 25.739 16.0469 25.4957 16.3136 25.4957C16.5803 25.4957 16.7986 25.7235 16.7986 26.0024C16.7986 26.8499 18.1939 26.4219 18.4503 25.4957C18.591 24.988 18.686 24.8983 18.7061 25.2536C18.7423 25.8842 19.2308 26.0062 19.5641 25.4676C19.6834 25.2746 20.0533 25.1878 20.386 25.2746C20.88 25.4034 20.9343 25.3279 20.6841 24.8609C20.5156 24.5469 20.4661 24.2015 20.5741 24.0937C20.7891 23.8788 20.0762 22.8909 19.7497 22.9513C19.6378 22.9719 19.2922 23.0552 18.9809 23.1362ZM21.0015 24.2048C20.5871 24.472 20.5987 24.5185 21.0824 24.5226C21.3937 24.5252 21.6482 24.3823 21.6482 24.2048C21.6482 23.811 21.6116 23.811 21.0015 24.2048ZM12.5322 26.6159C10.8678 27.6877 10.6932 27.9626 11.5448 28.1714C11.8558 28.2476 11.6379 28.2511 11.0599 28.1792C9.97225 28.0436 9.61273 28.5022 10.5306 28.8537C10.8617 28.9805 10.991 29.2881 10.8843 29.695C10.7918 30.0478 10.8481 30.3366 11.0094 30.3366C11.1704 30.3366 11.3023 30.0462 11.3023 29.6912C11.3023 28.9876 11.5406 28.8998 12.2435 29.3439C12.7731 29.6786 13.8888 29.1022 13.8888 28.4942C13.8888 28.2624 14.1242 28.1734 14.4546 28.2795C14.9108 28.4261 14.9305 28.3977 14.5561 28.1327C14.1775 27.8645 14.1678 27.7128 14.5034 27.3091C14.8374 26.9076 14.8335 26.7033 14.4827 26.2263C14.0718 25.6674 13.9754 25.6864 12.5322 26.6159ZM5.96777 33.5639C6.07931 33.744 5.83748 33.8844 5.42106 33.8818C4.82035 33.8776 4.76927 33.8157 5.1595 33.5639C5.76118 33.176 5.72755 33.176 5.96777 33.5639ZM194.779 41.9549C194.889 42.1324 194.743 42.2776 194.456 42.2776C194.168 42.2776 194.022 42.1324 194.132 41.9549C194.242 41.7774 194.388 41.6322 194.456 41.6322C194.524 41.6322 194.669 41.7774 194.779 41.9549ZM189.233 45.3575C189.127 45.6315 188.972 45.7864 188.887 45.7018C188.802 45.6173 188.829 45.393 188.946 45.2038C189.265 44.6888 189.451 44.7888 189.233 45.3575ZM188.263 47.2938C188.157 47.5678 188.002 47.7227 187.917 47.6382C187.832 47.5536 187.859 47.3293 187.976 47.1402C188.295 46.6251 188.481 46.7252 188.263 47.2938ZM180.715 48.4095C180.715 48.587 180.561 48.7322 180.373 48.7322C180.185 48.7322 180.12 48.587 180.23 48.4095C180.34 48.232 180.494 48.0868 180.573 48.0868C180.651 48.0868 180.715 48.232 180.715 48.4095ZM181.847 48.4095C181.957 48.587 181.82 48.7322 181.543 48.7322C181.265 48.7322 181.038 48.587 181.038 48.4095C181.038 48.232 181.175 48.0868 181.343 48.0868C181.51 48.0868 181.737 48.232 181.847 48.4095ZM160.347 54.8641C160.347 55.0416 160.201 55.1868 160.024 55.1868C159.846 55.1868 159.7 55.0416 159.7 54.8641C159.7 54.6866 159.846 54.5414 160.024 54.5414C160.201 54.5414 160.347 54.6866 160.347 54.8641ZM35.335 57.8006C35.4831 57.9113 35.3742 58.0898 35.0926 58.1976C34.7237 58.3389 34.5804 58.2008 34.5804 57.7048C34.5804 57.3259 34.6897 57.1471 34.8229 57.3078C34.9561 57.4682 35.1866 57.6903 35.335 57.8006ZM40.959 58.2863C40.8516 58.3935 40.5726 58.4051 40.3395 58.3118C40.0815 58.2089 40.1581 58.1324 40.5348 58.1169C40.8755 58.103 41.0663 58.1792 40.959 58.2863ZM120.257 59.5437C120.257 59.8219 119.965 60.0278 119.571 60.0278C118.997 60.0278 118.951 59.9481 119.287 59.5437C119.508 59.2775 119.817 59.0596 119.973 59.0596C120.129 59.0596 120.257 59.2775 120.257 59.5437ZM84.8547 59.7051C84.9646 59.8826 84.8191 60.0278 84.5314 60.0278C84.2436 60.0278 84.0981 59.8826 84.2081 59.7051C84.318 59.5276 84.4635 59.3823 84.5314 59.3823C84.5993 59.3823 84.7447 59.5276 84.8547 59.7051ZM72.084 59.8271C72.084 59.8939 71.8658 60.1295 71.5991 60.3505C71.2017 60.6797 71.1141 60.6574 71.1141 60.2285C71.1141 59.9407 71.3324 59.7051 71.5991 59.7051C71.8658 59.7051 72.084 59.7599 72.084 59.8271ZM93.4223 59.8474C93.4223 59.9258 93.2768 60.0794 93.099 60.1892C92.9212 60.2989 92.7757 60.2347 92.7757 60.0468C92.7757 59.859 92.9212 59.7051 93.099 59.7051C93.2768 59.7051 93.4223 59.769 93.4223 59.8474ZM79.062 60.6733C79.3142 60.6733 79.5201 60.9637 79.5201 61.3187C79.5201 61.6737 79.437 61.9642 79.3355 61.9642C78.964 61.9642 78.3866 61.1406 78.3171 60.5119C78.278 60.1569 78.3265 60.0481 78.4247 60.2698C78.5233 60.4919 78.8101 60.6733 79.062 60.6733ZM65.6179 61.3187C65.6179 61.7347 65.7815 61.9635 66.022 61.8835C66.2445 61.8096 66.4262 61.5553 66.4262 61.3187C66.4262 61.0822 66.2445 60.8278 66.022 60.7539C65.7815 60.6739 65.6179 60.9027 65.6179 61.3187ZM86.2071 61.3794C86.1039 61.6366 86.0273 61.5601 86.0118 61.1841C85.9979 60.844 86.0742 60.6536 86.1815 60.7607C86.2889 60.8679 86.3005 61.1464 86.2071 61.3794ZM87.1178 62.2869C87.2277 62.4644 87.0907 62.6096 86.8136 62.6096C86.5365 62.6096 86.3095 62.4644 86.3095 62.2869C86.3095 62.1094 86.4463 61.9642 86.6138 61.9642C86.7813 61.9642 87.0079 62.1094 87.1178 62.2869Z" fill="#FA6B2E"/>
</svg>
