<svg width="18" height="26" viewBox="0 0 18 26" fill="none" xmlns="http://www.w3.org/2000/svg">
<path fill-rule="evenodd" clip-rule="evenodd" d="M8.32174 0.703265C8.1666 0.79224 7.94269 1.91971 8.03705 2.13742C8.07893 2.23412 8.03884 2.3137 7.90484 2.39963C7.64538 2.56615 7.40785 3.42357 7.58553 3.55211C7.71597 3.64644 7.58262 3.96404 7.38628 4.02641C7.25797 4.06716 7.25305 4.85066 7.38091 4.88491C7.43236 4.8987 7.42849 4.95124 7.3721 5.00343C7.31636 5.05502 7.26322 5.17384 7.25403 5.26769C7.24486 5.36145 7.17571 5.48159 7.10042 5.53461C6.98308 5.61718 6.8025 6.19676 6.51028 7.42815C6.48401 7.53889 6.37939 7.67708 6.27769 7.73541C6.1761 7.79367 6.07583 7.90508 6.05499 7.98285C6.03413 8.06071 5.93349 8.15646 5.83144 8.19574C5.67502 8.25575 5.65863 8.29478 5.72745 8.44337C5.77238 8.54031 5.85135 8.60711 5.90282 8.5918C5.95438 8.57651 6.0343 8.60382 6.08047 8.65255C6.14005 8.71551 6.12635 8.75246 6.03312 8.78027C5.93877 8.80827 5.94995 8.86416 6.07297 8.97893C6.21347 9.11009 6.22025 9.18714 6.11071 9.41046C6.0374 9.55994 5.91001 9.75876 5.82777 9.85227C5.73924 9.95291 5.67965 10.1343 5.68167 10.2966C5.68364 10.4475 5.66061 10.6079 5.63053 10.653C5.60045 10.6981 5.46797 11.0967 5.33603 11.5386C5.18867 12.0324 5.05363 12.3447 4.98575 12.3486C4.90818 12.3532 4.89896 12.4061 4.9548 12.5266C5.00735 12.6401 4.95645 12.9887 4.80442 13.5567C4.64201 14.1632 4.60491 14.4353 4.67793 14.4833C4.73483 14.5207 4.76588 14.6088 4.74705 14.679C4.71635 14.7936 4.7674 14.839 4.95423 14.8634C5.07322 14.8788 5.09404 15.1452 4.98503 15.2566C4.82294 15.4223 4.97667 15.7941 5.37234 16.1929C5.71665 16.5399 5.89039 16.5826 5.95641 16.3362C5.98109 16.2441 6.06189 16.2282 6.20523 16.2874C6.43759 16.3832 6.97142 16.1778 7.02678 15.9712C7.04517 15.9026 7.13725 15.8112 7.23154 15.7682C7.32571 15.7253 7.39672 15.6338 7.38938 15.565C7.38197 15.4961 7.43987 15.4332 7.51797 15.4252C7.5973 15.4169 7.65285 15.3429 7.64364 15.2574C7.63469 15.1732 7.67247 15.1164 7.72774 15.1312C7.783 15.146 7.84011 15.1137 7.85471 15.0592C7.86929 15.0048 8.08972 14.8224 8.34468 14.6538C8.65228 14.4503 8.8634 14.2268 8.97245 13.9889C9.15296 13.5955 9.36783 13.3402 9.57261 13.2758C9.64568 13.2528 9.71749 13.1888 9.73231 13.1335C9.7765 12.9686 10.246 12.4215 10.3251 12.4427C10.3655 12.4536 10.4321 12.3367 10.4733 12.1831C10.5144 12.0295 10.654 11.8167 10.7834 11.7101C11.16 11.4003 11.513 10.8956 11.5164 10.6624C11.5188 10.4972 11.5485 10.468 11.6438 10.537C11.7452 10.6104 11.7856 10.5494 11.864 10.2047C11.9605 9.78115 12.1953 9.57042 12.4915 9.64185C12.5965 9.66717 12.659 9.5354 12.8642 8.85643C12.9039 8.72492 13.08 8.53821 13.2648 8.43194C13.5293 8.27972 13.567 8.22853 13.4556 8.17362C13.2606 8.07747 13.3246 7.928 13.5365 7.98477C13.7797 8.04996 14.0902 7.85119 14.0913 7.62963C14.0918 7.52243 14.1518 7.43883 14.2344 7.43031C14.3126 7.42226 14.3966 7.34119 14.421 7.25016C14.4454 7.15912 14.5173 7.06923 14.581 7.0503C14.6446 7.03138 14.7039 6.91489 14.7128 6.79137C14.7265 6.60048 14.7564 6.5821 14.9125 6.66871C15.0604 6.75077 15.1482 6.71291 15.3643 6.47393C15.5118 6.31077 15.7842 6.06563 15.9698 5.92921C16.1552 5.79276 16.3596 5.64262 16.4239 5.59562C16.4881 5.54863 16.5629 5.42719 16.59 5.32587C16.6178 5.22229 16.6989 5.15759 16.7755 5.17811C16.8736 5.20439 16.9384 5.11471 17.0075 4.85676C17.0811 4.58186 17.058 4.4189 16.9076 4.1531C16.7998 3.96293 16.652 3.79122 16.579 3.77168C16.506 3.75213 16.3993 3.65515 16.3417 3.55617C16.2466 3.39252 16.2337 3.38904 16.1991 3.51797C16.1782 3.59592 16.0986 3.64295 16.0222 3.62248C15.9457 3.60198 15.8498 3.63111 15.8089 3.68717C15.7617 3.7517 15.5419 3.74027 15.2088 3.65575C14.8996 3.57735 14.5753 3.55593 14.4218 3.60366C14.2782 3.64833 14.0289 3.67718 13.8679 3.66789C13.707 3.65853 13.4962 3.71508 13.3994 3.79357C13.19 3.96354 13.0682 3.95036 13.1184 3.76306C13.1641 3.59272 13.0711 3.56771 12.6979 3.64979C12.5351 3.68557 12.2488 3.67411 12.0615 3.62431C11.8743 3.57444 11.7111 3.57066 11.699 3.61595C11.6868 3.66125 11.4999 3.68135 11.2836 3.66062C11.0672 3.63987 10.7396 3.64299 10.5554 3.66743C10.3713 3.69187 10.1216 3.68531 10.0006 3.65288C9.87953 3.62044 9.74071 3.64852 9.692 3.71524C9.64001 3.7866 9.48896 3.80588 9.32562 3.76212C9.17208 3.72098 9.01104 3.73797 8.96573 3.8C8.91834 3.86505 8.81479 3.87327 8.72031 3.81972C8.62028 3.76294 8.5447 3.77276 8.52536 3.84494C8.50583 3.91784 8.46372 3.88625 8.4154 3.76239C8.36084 3.62264 8.40636 3.33082 8.56572 2.79922C8.69153 2.3798 8.77727 1.96396 8.75623 1.87516C8.73519 1.78636 8.73397 1.55898 8.7535 1.36994C8.77305 1.18082 8.73272 0.985415 8.66388 0.935637C8.59515 0.885794 8.57512 0.810997 8.61963 0.769355C8.7311 0.664809 8.48423 0.610073 8.32174 0.703265ZM14.0241 5.4035C13.9622 5.60256 13.8567 5.76258 13.7823 5.77021C13.7097 5.77773 13.58 5.94071 13.4941 6.13246C13.4082 6.32421 13.3023 6.47154 13.2587 6.45987C13.2151 6.44819 13.1633 6.49956 13.1433 6.57399C13.1234 6.64843 13.0458 6.69291 12.9709 6.67286C12.8961 6.6528 12.8185 6.69728 12.7986 6.77172C12.7786 6.84615 12.7196 6.89562 12.6676 6.88166C12.6155 6.86771 12.5658 6.90885 12.5574 6.97302C12.5195 7.25809 12.43 7.37578 12.2891 7.32555C12.2012 7.29415 12.1033 7.34373 12.0565 7.44317C11.916 7.74234 11.5645 8.11896 11.2234 8.33556C10.9911 8.48315 10.8887 8.61391 10.8769 8.77804C10.8636 8.96295 10.8329 8.99126 10.7282 8.91554C10.6404 8.85207 10.5833 8.8686 10.5574 8.96513C10.5361 9.04489 10.4573 9.09371 10.3825 9.07365C10.3076 9.05359 10.2642 8.96586 10.286 8.87858C10.3163 8.75731 10.2436 8.77226 9.97716 8.94242C9.78547 9.06472 9.6113 9.22944 9.59012 9.30847C9.56087 9.41764 9.49946 9.42323 9.33452 9.33175C9.17108 9.24116 9.02988 9.25235 8.76311 9.37717C8.56828 9.46836 8.40995 9.57979 8.41123 9.62471C8.41472 9.74236 8.24917 9.68146 8.20942 9.55033C8.16359 9.39938 7.84887 9.54674 7.86644 9.71091C7.88688 9.90214 7.76356 9.92499 7.66125 9.74895C7.61066 9.6619 7.59946 9.47827 7.63633 9.34068C7.68584 9.15591 7.72282 9.12424 7.77801 9.21919C7.88259 9.39913 8.11908 9.3539 8.17555 9.14314C8.20151 9.04625 8.24995 8.99579 8.28323 9.03091C8.36442 9.11668 8.515 9.05308 8.71447 8.84873C8.8184 8.74216 8.85182 8.65084 8.80506 8.60137C8.68499 8.47453 8.76312 8.34993 8.93586 8.39274C9.10542 8.43469 9.58159 8.25139 9.61365 8.13176C9.62416 8.09251 9.57195 8.09535 9.4976 8.13799C9.30891 8.24621 9.16343 8.01963 9.2849 7.80695C9.36034 7.67496 9.40047 7.66928 9.47907 7.77959C9.53356 7.85608 9.60895 7.90103 9.64652 7.87948C9.6841 7.85793 9.75717 7.913 9.80876 8.00176C9.92785 8.20667 10.1829 8.18499 10.2419 7.96494C10.272 7.85271 10.3275 7.82638 10.4091 7.88539C10.4865 7.94142 10.5455 7.92069 10.5701 7.82884C10.5915 7.74909 10.6498 7.6948 10.6997 7.70817C10.7496 7.72154 10.8056 7.67592 10.8241 7.60681C10.8427 7.5377 10.9253 7.47417 11.0079 7.46563C11.0904 7.45718 11.1691 7.40836 11.1828 7.35712C11.1965 7.30596 11.1465 7.24769 11.0716 7.22763C10.9968 7.20757 10.9526 7.12755 10.9734 7.04978C11.0003 6.94936 11.0596 6.93913 11.1774 7.01423C11.2792 7.07911 11.3546 7.0791 11.372 7.01414C11.3876 6.95586 11.4554 6.948 11.5226 6.99666C11.5904 7.0457 11.658 7.03566 11.6745 6.97395C11.6909 6.91278 11.8068 6.84732 11.932 6.82836C12.0572 6.8094 12.2503 6.68804 12.3612 6.5586C12.4721 6.42916 12.6316 6.28389 12.7157 6.23574C12.9293 6.11322 12.9442 5.98754 12.781 5.68532C12.6057 5.36104 12.4039 5.29962 12.1645 5.49763C12.0635 5.58117 11.8994 5.6691 11.7999 5.69292C11.6209 5.73575 11.6306 5.6583 11.8746 5.09782C11.8902 5.06207 12.0006 5.05907 12.12 5.09106C12.2394 5.12306 12.3744 5.0982 12.4199 5.03575C12.4689 4.96862 12.6252 4.95703 12.8026 5.00746C13.224 5.12716 13.8372 5.17579 13.9692 5.10006C14.1385 5.00298 14.1422 5.02322 14.0241 5.4035ZM10.1988 4.99295C10.1597 5.10219 10.2098 5.13758 10.4238 5.15157C10.7275 5.17156 10.7414 5.25612 10.4748 5.46222C10.2658 5.62397 10.2861 5.76006 10.5292 5.8252C10.8884 5.92143 10.5555 6.22823 10.1559 6.1692C9.92421 6.13498 9.84559 6.06508 9.74853 5.807C9.62239 5.47159 9.30351 5.29651 9.24136 5.52847C9.2188 5.61265 9.29076 5.68675 9.43195 5.72459C9.70446 5.7976 9.67974 5.98786 9.38623 6.0767C9.15224 6.14744 9.03763 6.39223 9.21575 6.44073C9.27811 6.45773 9.18617 6.51481 9.01157 6.56753C8.82564 6.62369 8.66711 6.62115 8.62908 6.56125C8.50879 6.37208 8.40617 6.41498 8.36933 6.66968C8.33323 6.91983 8.26347 6.93266 7.85677 6.76374C7.71718 6.70574 7.86833 6.41678 8.0788 6.33945C8.26944 6.26936 8.27799 6.24941 8.16472 6.13967C8.09555 6.0726 7.99712 6.03017 7.94597 6.04538C7.89491 6.06061 7.81891 5.99905 7.77701 5.90863C7.71766 5.78055 7.73263 5.72181 7.84458 5.64302C7.92369 5.58734 7.99995 5.44464 8.01409 5.32582C8.05681 4.9671 8.33308 4.86852 8.86748 5.02148C9.12872 5.09621 9.40414 5.12205 9.47941 5.07888C9.55468 5.03571 9.68978 5.02008 9.77961 5.04415C9.86945 5.06822 9.94629 5.05622 9.95038 5.01738C9.97104 4.81976 10.0546 4.71944 10.1465 4.78215C10.203 4.8208 10.2265 4.91558 10.1988 4.99295ZM11.1802 6.09634C11.1978 6.15423 11.1689 6.18999 11.1161 6.17584C11.0632 6.16169 11.0308 6.10949 11.0441 6.05987C11.0574 6.01025 11.0863 5.97446 11.1083 5.98037C11.1304 5.98628 11.1627 6.03845 11.1802 6.09634ZM7.43575 5.98148C7.38754 6.04563 7.37176 6.01848 7.39557 5.91221C7.41715 5.81607 7.45283 5.76858 7.47493 5.8066C7.49703 5.84463 7.47943 5.92337 7.43575 5.98148ZM10.0469 7.60374C9.96445 7.61201 9.86317 7.64879 9.82195 7.68542C9.7806 7.72211 9.71128 7.6752 9.6677 7.58123C9.59888 7.43263 9.62818 7.42201 9.89275 7.49958C10.0599 7.54854 10.1294 7.59547 10.0469 7.60374ZM7.62049 8.55115C7.57873 8.60649 7.57174 8.55017 7.60498 8.42612C7.63822 8.30206 7.6724 8.25688 7.68093 8.32559C7.68953 8.39443 7.66233 8.49593 7.62049 8.55115ZM7.35955 9.2847C7.33884 9.36202 7.28775 9.38933 7.24606 9.34529C7.20437 9.30124 7.18049 9.22705 7.19301 9.18032C7.20553 9.13358 7.25659 9.10636 7.3065 9.11973C7.35641 9.1331 7.38027 9.20738 7.35955 9.2847ZM8.87944 9.78295C8.8595 9.85738 8.80234 9.90734 8.75243 9.89396C8.70253 9.88059 8.67801 9.80875 8.69795 9.73432C8.7179 9.65989 8.77505 9.60993 8.82496 9.6233C8.87487 9.63667 8.89938 9.70851 8.87944 9.78295ZM8.24183 10.3477C8.22996 10.392 8.15899 10.4118 8.08412 10.3918C8.00926 10.3717 7.96399 10.2957 7.98352 10.2228C8.00513 10.1421 8.06675 10.1249 8.14122 10.1787C8.20842 10.2273 8.2537 10.3034 8.24183 10.3477ZM7.66076 10.2401C7.62261 10.2619 7.54343 10.2442 7.48499 10.2006C7.42029 10.1524 7.44752 10.1368 7.5544 10.1608C7.65108 10.1825 7.69891 10.2182 7.66076 10.2401ZM9.18215 10.831C9.16221 10.9055 9.10505 10.9554 9.05515 10.9421C9.00524 10.9287 8.98072 10.8569 9.00066 10.7824C9.02061 10.708 9.07776 10.658 9.12767 10.6714C9.17758 10.6848 9.2021 10.7566 9.18215 10.831ZM7.77642 10.7525C7.73045 10.8155 7.73363 10.8781 7.78354 10.8914C7.83345 10.9048 7.91029 10.8663 7.95439 10.8059C8.03913 10.6896 8.59905 10.6885 8.70874 10.8044C8.74436 10.8421 8.73461 10.926 8.68722 10.991C8.63972 11.0562 8.57208 11.0788 8.53682 11.0416C8.50166 11.0045 8.41007 11.0407 8.3333 11.1221C8.22104 11.2412 8.22499 11.2878 8.35357 11.3608C8.44137 11.4106 8.56962 11.419 8.63857 11.3795C8.7289 11.3277 8.74089 11.3715 8.68133 11.5372C8.60861 11.7396 8.57635 11.7504 8.40679 11.6286C8.15464 11.4473 8.16604 11.445 8.12687 11.6845C8.10813 11.7991 8.09377 11.8204 8.09496 11.7317C8.09614 11.6431 7.98267 11.4931 7.84275 11.3982C7.50195 11.1674 7.41161 11.1514 7.43021 11.3255C7.45344 11.5426 7.2648 11.5574 7.20599 11.3431C7.16183 11.1823 7.14976 11.1773 7.11308 11.3044C7.08999 11.3847 7.00133 11.4822 6.91624 11.521C6.75634 11.594 6.69801 11.9544 6.83993 11.9924C7.03566 12.0448 6.8353 12.2343 6.62919 12.1916C6.48738 12.1622 6.41187 12.0955 6.43264 12.018C6.45118 11.9488 6.51777 11.9047 6.58054 11.9198C6.65024 11.9366 6.64545 11.8841 6.56805 11.7849C6.41602 11.5901 6.47161 11.351 6.72928 11.0924C6.89889 10.9223 6.91472 10.9213 6.87631 11.0835C6.8361 11.2532 6.84816 11.2539 7.05806 11.0941C7.18364 10.9986 7.32103 10.9631 7.36917 11.0139C7.41952 11.0671 7.47104 11.0465 7.49304 10.9644C7.51376 10.887 7.46948 10.8073 7.39462 10.7872C7.31975 10.7672 7.27598 10.6855 7.29735 10.6058C7.32196 10.5139 7.38101 10.4932 7.45839 10.5492C7.52561 10.5978 7.59081 10.5995 7.60326 10.553C7.61571 10.5066 7.67862 10.5066 7.74298 10.5531C7.80735 10.5997 7.82241 10.6894 7.77642 10.7525ZM7.1571 10.7662C7.15122 10.7882 7.09888 10.8202 7.04075 10.8375C6.98263 10.8548 6.9466 10.8259 6.96067 10.7734C6.97474 10.7208 7.02711 10.6888 7.07702 10.7021C7.12692 10.7155 7.16297 10.7443 7.1571 10.7662ZM9.10562 11.6876C8.94141 11.7818 8.92834 11.7783 8.96286 11.6494C8.98375 11.5715 9.04167 11.5186 9.09158 11.532C9.14149 11.5454 9.20607 11.4866 9.23516 11.4013C9.28539 11.2537 9.28793 11.2544 9.2872 11.415C9.28672 11.5079 9.20503 11.6306 9.10562 11.6876ZM7.83027 11.9639C7.79202 12.0358 7.86242 12.0704 8.06663 12.0799C8.43087 12.097 8.42004 12.1345 7.97714 12.3885C7.76866 12.5081 7.62763 12.6537 7.63683 12.7399C7.64548 12.8208 7.6099 12.8756 7.55781 12.8616C7.50572 12.8477 7.5067 12.7228 7.55998 12.5842C7.61327 12.4456 7.62237 12.2577 7.58022 12.1668C7.49286 11.9781 7.65348 11.6981 7.79267 11.7964C7.8434 11.8321 7.86034 11.9075 7.83027 11.9639ZM6.54085 12.8607C6.44007 13.0303 6.40855 13.044 6.41218 12.9173C6.41477 12.8249 6.37907 12.7392 6.33289 12.7268C6.28661 12.7144 6.2763 12.6015 6.30995 12.4759C6.34363 12.3502 6.31642 12.2079 6.24945 12.1595C6.18249 12.111 6.15801 12.043 6.19502 12.0083C6.23193 11.9736 6.35496 12.1007 6.46831 12.2907C6.63851 12.576 6.65114 12.6752 6.54085 12.8607ZM6.79802 13.5582C6.78061 13.6232 6.68529 13.739 6.58624 13.8157C6.41581 13.9476 6.41018 13.9392 6.48177 13.6612C6.53383 13.4589 6.5999 13.3786 6.69355 13.4036C6.76841 13.4237 6.81542 13.4933 6.79802 13.5582ZM2.59813 19.5095C2.0769 19.6439 1.76684 19.8206 1.70312 20.02C1.55062 20.4965 1.54825 20.4981 1.17573 20.3777C0.733458 20.2348 0.556204 20.3751 0.563224 20.8625C0.573383 21.5713 0.800988 22.1715 1.08864 22.2486C1.18302 22.2739 1.3319 22.4467 1.4196 22.6327C1.50729 22.8187 1.63816 22.9647 1.71037 22.9573C1.78268 22.9499 1.8458 23.0294 1.85077 23.1339C1.8592 23.3133 1.8775 23.3201 2.17484 23.2558C2.34809 23.2183 2.56145 23.2282 2.64891 23.2778C2.73637 23.3275 2.81538 23.3415 2.82447 23.309C2.8446 23.2371 3.34776 23.144 3.49822 23.1843C3.62998 23.2197 3.78871 23.0189 3.76966 22.841C3.74978 22.6553 4.17051 22.1417 4.35845 22.1224C4.48227 22.1096 4.52269 22.0295 4.54339 21.7559C4.55782 21.5634 4.5797 21.3402 4.59176 21.26C4.61955 21.076 4.58916 20.7641 4.52355 20.5581C4.49576 20.4709 4.46795 20.3293 4.46185 20.2436C4.44633 20.0245 3.6334 19.5096 3.49818 19.6332C3.43133 19.6943 3.40667 19.6908 3.42383 19.6228C3.46638 19.4549 3.03796 19.3961 2.59813 19.5095ZM2.73732 19.6386C2.73144 19.6606 2.6791 19.6926 2.62097 19.7099C2.56285 19.7272 2.52682 19.6983 2.54089 19.6458C2.55496 19.5933 2.60733 19.5612 2.65724 19.5745C2.70714 19.5879 2.74319 19.6167 2.73732 19.6386ZM3.59549 20.7916C3.56766 20.8954 2.97069 21.0123 2.75853 20.9555C2.52532 20.893 2.60759 20.6799 2.88655 20.6243C3.31871 20.5381 3.64292 20.6146 3.59549 20.7916Z" fill="white"/>
</svg>
