<svg width="196" height="18" viewBox="0 0 196 18" fill="none" xmlns="http://www.w3.org/2000/svg">
<path opacity="0.5" fill-rule="evenodd" clip-rule="evenodd" d="M119.289 0.20261C119.119 0.31119 117.688 0.378649 116.11 0.352579C113.71 0.312803 113.185 0.378381 112.894 0.75384C112.572 1.17015 112.559 1.16934 112.706 0.740402C112.847 0.332959 112.675 0.285657 111.244 0.337259C110.353 0.369779 109.623 0.470028 109.622 0.560332C109.622 0.650904 109.305 0.663536 108.917 0.588552C108.408 0.490185 108.268 0.5434 108.413 0.780179C108.556 1.01454 108.452 1.00648 108.045 0.751959C107.565 0.450946 107.438 0.458202 107.223 0.799261C107.055 1.06722 106.968 1.08979 106.965 0.866451C106.96 0.45229 103.354 0.389668 103.103 0.799261C103.013 0.94708 103.066 1.06802 103.22 1.06802C103.375 1.06802 103.502 1.18897 103.502 1.33678C103.502 1.83722 102.921 1.60931 102.777 1.05243C102.646 0.546625 102.484 0.510879 100.873 0.633703C99.9044 0.707613 98.9662 0.775073 98.7877 0.783673C98.5916 0.79308 98.5325 0.984975 98.6381 1.26959C98.7909 1.68134 98.7568 1.69397 98.3635 1.37118C98.1166 1.16827 97.9147 1.09221 97.9147 1.2024C97.9147 1.3126 97.7651 1.29271 97.5821 1.1586C97.0792 0.789855 94.5342 0.936598 94.0217 1.3642C93.6742 1.65392 93.5455 1.66333 93.4598 1.40612C93.389 1.19407 93.1865 1.15134 92.9042 1.28868C92.66 1.40774 91.9437 1.48057 91.3126 1.45047C90.4484 1.40908 90.0386 1.53271 89.6525 1.95117C89.3705 2.25702 89.0587 2.42527 88.9597 2.32502C88.8604 2.22504 88.9262 2.14307 89.1055 2.14307C89.2848 2.14307 89.3577 2.02213 89.2673 1.87431C89.1768 1.72649 88.5795 1.60555 87.9398 1.60555C86.945 1.60555 86.7598 1.69316 86.6613 2.21026L86.5459 2.81497L86.5097 2.21026C86.4708 1.56147 86.06 1.38865 85.8708 1.9415C85.6923 2.46397 86.2274 3.44549 86.7071 3.47478C88.3711 3.57664 89.9354 3.5495 90.7307 3.40464C91.2429 3.31164 92.3503 3.21086 93.1919 3.18076C94.6175 3.12996 94.8442 2.99827 94.7495 2.27745C94.73 2.12963 94.8788 2.22047 95.0799 2.47902C95.5426 3.07406 96.2666 3.07997 96.9073 2.49407C97.2764 2.15678 97.3674 2.13931 97.258 2.42688C97.1436 2.72897 97.403 2.82734 98.4269 2.87087C99.5936 2.92033 99.7564 2.85932 99.8594 2.33335L99.9757 1.73993L100.169 2.32663C100.35 2.87491 100.495 2.90608 102.398 2.80449C103.517 2.74483 105.182 2.67629 106.096 2.6521C107.011 2.62791 107.759 2.49918 107.759 2.36614C107.759 2.2331 108.009 2.2589 108.314 2.42392C108.747 2.65775 108.965 2.63463 109.312 2.31776C109.633 2.02428 109.886 1.98584 110.227 2.17881C110.856 2.53465 113.813 2.73649 113.997 2.43629C114.078 2.30486 114.565 2.29519 115.089 2.41479C115.61 2.53331 116.658 2.55105 117.419 2.45403C118.179 2.35673 119.559 2.33846 120.486 2.41291C121.412 2.48735 122.214 2.50401 122.267 2.44999C122.321 2.3957 124.646 2.35297 127.434 2.35458C131.967 2.35727 132.505 2.31078 132.508 1.91435C132.512 1.55421 132.556 1.54131 132.747 1.84555C132.885 2.06513 133.214 2.15893 133.541 2.07238C133.849 1.99122 134.101 2.02454 134.101 2.14683C134.101 2.26912 134.939 2.34867 135.963 2.32341C136.994 2.29788 137.827 2.15731 137.83 2.00869C137.832 1.86087 137.927 1.88775 138.041 2.06808C138.189 2.30406 139.105 2.37205 141.296 2.3097C142.973 2.26213 144.464 2.19064 144.611 2.15113C144.757 2.11162 144.937 2.10867 145.01 2.14468C145.535 2.40189 148.644 2.49488 150.797 2.31776C151.565 2.25461 152.194 2.28014 152.194 2.37447C152.194 2.46908 152.463 2.57147 152.792 2.60238C154.993 2.80852 156.095 2.8053 156.384 2.59163C156.597 2.43441 156.717 2.45456 156.717 2.6478C156.717 3.07325 158.453 3.02434 158.811 2.58868C158.974 2.39033 159.045 2.16564 158.97 2.08932C158.895 2.01326 159.015 1.79798 159.238 1.61092C159.571 1.33195 159.644 1.3435 159.644 1.67408C159.644 1.89581 159.466 2.22665 159.248 2.40941C158.587 2.96333 159.015 3.15227 160.972 3.17108C162 3.18076 162.96 3.26354 163.107 3.35492C163.253 3.44629 163.446 3.32831 163.535 3.09287C163.682 2.7072 163.731 2.70989 164.028 3.12029C164.335 3.54439 164.38 3.54036 164.681 3.06116C164.947 2.6392 164.979 2.63114 164.861 3.01654C164.768 3.31729 164.857 3.48688 165.107 3.48688C165.322 3.48688 165.501 3.27536 165.506 3.01654C165.513 2.60292 165.553 2.59539 165.839 2.95365C166.063 3.23532 166.574 3.3447 167.493 3.30761C168.225 3.27832 169.399 3.39174 170.103 3.55971C171.104 3.79891 171.5 3.79058 171.927 3.52181C172.226 3.33288 172.392 3.30842 172.295 3.46699C172.195 3.63013 172.327 3.76451 172.599 3.77633C172.864 3.78762 173.32 3.854 173.613 3.92415C174.085 4.03676 176.407 4.07385 176.889 3.97629C176.989 3.95587 177.283 4.03246 177.541 4.14642C177.8 4.26037 178.249 4.29101 178.539 4.21415C178.83 4.13755 179.067 4.16846 179.067 4.28268C179.067 4.39717 179.576 4.49231 180.198 4.49419C181.278 4.49769 182.378 4.63852 184.838 5.08869C185.538 5.21689 186.058 5.18679 186.235 5.00807C186.434 4.8073 186.517 4.81859 186.517 5.04569C186.517 5.47249 187.234 5.46147 187.406 5.03226C187.513 4.76349 187.544 4.76349 187.561 5.03226C187.59 5.50877 188.646 5.45152 188.646 4.9734C188.646 4.74065 188.803 4.63959 189.028 4.72694C189.239 4.80838 189.35 5.03441 189.276 5.22872C189.184 5.47007 189.36 5.56978 189.829 5.54237C190.409 5.50877 190.453 5.45502 190.106 5.19835C189.736 4.92475 189.737 4.87799 190.115 4.73124C190.358 4.63691 190.467 4.68045 190.374 4.83364C190.284 4.97985 190.338 5.09945 190.493 5.09945C190.648 5.09945 190.775 5.28086 190.775 5.50259C190.775 5.93261 191.091 6.03393 191.414 5.70765C191.743 5.37546 192.485 5.47947 192.828 5.90573C193.116 6.26399 193.154 6.26399 193.165 5.90573C193.173 5.65121 193.249 5.60848 193.373 5.78989C193.585 6.10112 195.837 7.06382 195.99 6.90875C196.042 6.85661 195.886 6.52845 195.644 6.17933C195.231 5.58402 195.193 5.57623 195.027 6.05382C194.863 6.52523 194.799 6.50776 194.171 5.82268C193.754 5.36821 193.172 5.05967 192.666 5.02366C192.212 4.9914 191.84 4.88444 191.839 4.7858C191.838 4.19184 186.989 3.09287 186.211 3.51026C185.907 3.67367 185.726 3.62395 185.621 3.34766C185.526 3.09798 185.113 2.94935 184.514 2.94935C183.821 2.94935 183.614 3.04154 183.759 3.28531C183.883 3.49467 183.781 3.47586 183.488 3.23505C183.229 3.02246 182.691 2.83325 182.294 2.81444C181.896 2.79562 181.422 2.68758 181.241 2.57443C181.059 2.46101 179.987 2.32233 178.858 2.26616C177.729 2.20972 176.806 2.14791 176.806 2.12829C176.806 1.91301 174.626 2.02266 174.481 2.2452C174.344 2.45779 174.285 2.44758 174.282 2.21026C174.28 2.02562 174.151 1.87431 173.996 1.87431C173.841 1.87431 173.796 2.00788 173.896 2.17102C173.996 2.33416 173.793 2.28793 173.446 2.06862C172.699 1.59668 169.489 1.2196 169.489 1.60393C169.489 1.75525 169.205 1.73213 168.804 1.54776C168.25 1.29298 168.075 1.30668 167.881 1.62086C167.682 1.94365 167.549 1.95037 167.088 1.66118C166.535 1.31555 165.213 1.12016 162.172 0.934986C161.294 0.881502 160.575 0.820762 160.575 0.800336C160.575 0.779642 160.076 0.740671 159.467 0.713794C158.596 0.675362 158.418 0.738252 158.639 1.00701C158.853 1.26664 158.816 1.3083 158.484 1.17983C158.244 1.08657 158.047 0.896283 158.047 0.756796C158.047 0.61704 157.419 0.517061 156.651 0.534531C155.461 0.561675 150.477 0.377574 147.799 0.207448C147.357 0.179497 146.782 0.23943 146.521 0.340485C146.236 0.450946 146.111 0.418425 146.209 0.258781C146.438 -0.115335 145.98 -0.0728702 145.595 0.31549C145.347 0.566245 145.205 0.566245 144.957 0.31549C144.562 -0.0830831 143.413 -0.111035 143.413 0.277594C143.413 0.434013 143.271 0.473522 143.097 0.364942C142.725 0.132463 135.945 0.0123274 136.081 0.240506C136.132 0.326241 135.858 0.629672 135.47 0.915097L134.766 1.43434L135.273 0.847907C135.779 0.262813 135.778 0.261738 135.007 0.236743C134.582 0.222768 133.785 0.180572 133.236 0.142676C132.649 0.102362 132.237 0.195623 132.234 0.369511C132.232 0.536412 132.132 0.509267 132.005 0.306889C131.785 -0.0451881 130.473 0.0031896 129.86 0.385906C129.705 0.482929 129.577 0.464383 129.577 0.344785C129.577 0.00829509 124.689 0.159609 124.577 0.499861C124.512 0.696057 124.238 0.664343 123.737 0.402838C123.328 0.189173 122.924 0.0843554 122.839 0.169822C122.649 0.361986 120.69 0.34801 120.061 0.150201C119.808 0.0703793 119.46 0.0940302 119.289 0.20261ZM96.7173 1.60555C96.8078 1.75336 96.762 1.87431 96.6157 1.87431C96.4694 1.87431 96.2757 1.75336 96.1852 1.60555C96.0947 1.45773 96.1405 1.33678 96.2868 1.33678C96.4332 1.33678 96.6269 1.45773 96.7173 1.60555ZM81.8568 2.01057C81.4742 2.21107 81.1012 2.27772 81.0283 2.15839C80.8476 1.86302 79.529 1.87861 78.9569 2.18311C78.6467 2.34813 78.4913 2.33174 78.4913 2.13447C78.4913 1.97133 78.2816 1.90306 78.0256 1.98235C77.7697 2.06163 77.1239 2.15409 76.5907 2.18768C75.9428 2.2288 75.6637 2.36023 75.7488 2.58411C75.8279 2.79267 75.6661 2.90339 75.3213 2.87706C75.0161 2.85394 74.7662 2.6994 74.7662 2.53385C74.7662 2.15301 73.7924 2.21295 73.3909 2.61851C73.1937 2.81766 72.9287 2.83782 72.6297 2.67629C72.3463 2.5231 71.2689 2.53627 69.8101 2.71069C68.5116 2.86577 66.6709 3.02057 65.7197 3.05444C64.7685 3.0883 63.7444 3.25171 63.4437 3.41727C63.143 3.58255 62.7421 3.62126 62.5524 3.50273C62.3624 3.38421 61.7704 3.38233 61.2364 3.49816C60.7021 3.614 59.3496 3.76504 58.2305 3.83358C57.1114 3.90238 56.0556 4.04617 55.884 4.15314C55.7127 4.2601 54.8322 4.39771 53.9276 4.45845C51.447 4.62535 50.2877 4.76107 48.8283 5.0551C48.099 5.20211 47.4106 5.265 47.2983 5.19513C47.1863 5.12498 47.0945 5.18276 47.0945 5.32359C47.0945 5.46442 46.9088 5.65148 46.6816 5.73964C46.4543 5.82752 46.3298 5.79957 46.4046 5.67755C46.5592 5.42465 45.1256 5.48646 44.2526 5.77001C43.8532 5.89982 43.7242 6.09709 43.8386 6.40267C43.9833 6.78861 43.9429 6.78431 43.5294 6.37015C43.1574 5.99791 42.7833 5.92669 41.8148 6.04441C41.1331 6.12719 40.2112 6.22851 39.7655 6.26936C39.3198 6.31022 38.8409 6.41181 38.7012 6.49539C38.5615 6.57898 38.1177 6.60962 37.7154 6.56366C37.3131 6.5177 36.9837 6.59107 36.9837 6.72707C36.9837 6.86306 36.774 6.95659 36.5181 6.93509C35.5128 6.84989 35.0901 6.98131 35.2896 7.31673C35.4253 7.54491 35.3452 7.53442 35.0392 7.28394C34.7599 7.05495 34.589 7.0262 34.589 7.20815C34.589 7.36941 34.4217 7.4366 34.2168 7.35704C34.0122 7.27776 33.7645 7.34414 33.6663 7.50432C33.5681 7.66477 33.3906 7.73492 33.2714 7.66074C32.9346 7.4503 28.7157 8.04642 28.0936 8.39231C27.7882 8.56217 27.248 8.71993 26.8934 8.74251C26.5387 8.76535 26.0297 9.05696 25.7626 9.39049C25.3179 9.94495 25.1442 9.91243 25.257 9.29616C25.3169 8.96773 22.7876 9.28164 22.6772 9.61625C22.6282 9.76461 22.2459 9.83126 21.8271 9.76461C20.9256 9.62109 20.5651 10.0508 21.0629 10.6752C21.3883 11.0832 21.363 11.0826 20.7678 10.6687C20.105 10.2078 18.6046 10.2414 17.4273 10.7434C17.1346 10.8681 16.5609 11.0439 16.1525 11.1337C15.7441 11.2232 15.4767 11.4057 15.5581 11.539C15.6398 11.6723 15.5775 11.8618 15.42 11.9601C15.2353 12.0754 15.3008 12.2622 15.6041 12.4864C16.1437 12.8847 16.8496 12.721 16.5764 12.2606C16.476 12.0913 16.5958 12.1184 16.8427 12.3205C17.2258 12.6344 17.3905 12.6229 17.9655 12.2423C18.3364 11.9969 18.7478 11.8636 18.8798 11.9461C19.012 12.0287 19.1982 11.9682 19.2938 11.812C19.3893 11.6556 19.7152 11.6072 20.0175 11.7043C20.4443 11.8411 20.5318 11.7862 20.4078 11.46C20.279 11.1213 20.3618 11.0834 20.8333 11.2659C21.2715 11.4352 21.5796 11.3473 22.0599 10.9163C22.4127 10.5994 22.6205 10.483 22.5212 10.6577C22.2397 11.153 22.7485 11.3043 23.3075 10.8915C23.5922 10.6811 23.9288 10.6174 24.081 10.745C24.5245 11.117 26.2072 10.6437 26.2112 10.146C26.2154 9.58723 26.5962 9.1814 26.6382 9.6907C26.6558 9.90006 26.6518 10.1737 26.63 10.2984C26.536 10.8337 27.2741 10.24 27.4378 9.6485C27.5559 9.22144 27.6272 9.15882 27.6445 9.46682C27.6687 9.89603 28.1942 10.0981 28.8684 9.93742C29.0148 9.90248 29.374 9.84309 29.6667 9.80546C29.9593 9.76783 30.1988 9.70602 30.1988 9.66839C30.1988 9.56546 31.0808 9.42866 32.8596 9.25611C34.7189 9.0755 35.2023 8.94327 35.0305 8.66242C34.9621 8.55061 35.2537 8.45896 35.6786 8.45896C36.1038 8.45896 36.4516 8.53825 36.4516 8.63527C36.4516 8.73229 36.691 8.74842 36.9837 8.67129C37.2764 8.59388 37.5159 8.41784 37.5159 8.27997C37.5159 8.14129 38.0453 8.09211 38.7009 8.17005C39.538 8.26949 40.0007 8.19504 40.2761 7.91687C40.5555 7.63494 40.6957 7.61344 40.771 7.84135C40.8516 8.08592 41.3026 8.08431 42.7213 7.83356C43.7364 7.65429 44.7762 7.50244 45.0324 7.49626C45.2887 7.49008 45.4981 7.36914 45.4981 7.22777C45.4981 7.0864 45.799 7.04689 46.1667 7.14015C46.5501 7.23718 47.0041 7.1681 47.231 6.97782C47.4487 6.79533 47.6267 6.75797 47.6267 6.8945C47.6267 7.04474 48.3376 7.0528 49.4227 6.91493C50.4106 6.78915 51.518 6.69508 51.8839 6.70583C52.2497 6.71631 53.0878 6.60236 53.7464 6.45212C54.4049 6.30215 55.5424 6.12504 56.2741 6.05866C57.0058 5.99254 58.0235 5.86273 58.5357 5.77054C59.0479 5.67836 60.2452 5.5644 61.1964 5.51764C64.4939 5.35504 67.1847 5.04435 67.492 4.79064C67.6634 4.64954 67.8648 4.64013 67.9441 4.76968C68.1455 5.09891 70.3193 4.88497 70.9747 4.47135C71.1577 4.35578 71.3073 4.37003 71.3073 4.50279C71.3073 4.63556 71.6963 4.70087 72.172 4.64793C72.6477 4.59498 73.4241 4.5251 73.8975 4.49258C74.8069 4.4305 75.2843 3.81423 74.7088 3.44522C74.5209 3.32481 74.468 3.22456 74.5912 3.22215C74.7146 3.22 75.1198 3.46 75.4918 3.75564C76.1825 4.30445 78.2252 4.52161 78.2252 4.04617C78.2252 3.89943 78.6134 3.90722 79.1807 4.06552C80.3575 4.39368 80.929 4.20796 80.7234 3.56428C80.626 3.26004 80.6531 3.19903 80.7971 3.39845C81.1406 3.87389 82.4824 4.15529 82.4824 3.75188C82.4824 3.49064 82.5659 3.49118 82.8791 3.75349C83.1452 3.97683 83.6728 4.02601 84.4827 3.90346C85.6614 3.72473 85.688 3.69893 85.6282 2.7975C85.5904 2.23069 85.4273 1.87431 85.2062 1.87431C85.008 1.87431 84.9273 2.00788 85.0271 2.17102C85.1269 2.33416 84.8946 2.25971 84.5107 2.00573C84.1092 1.73993 83.8127 1.66817 83.8127 1.83668C83.8127 2.03395 83.6065 2.05061 83.1827 1.88774C82.7532 1.72273 82.3315 1.76196 81.8568 2.01057ZM93.231 2.36695C93.3063 2.49031 93.199 2.59109 92.9923 2.59109C92.7856 2.59109 92.6783 2.49031 92.7536 2.36695C92.8289 2.24385 92.9364 2.14307 92.9923 2.14307C93.0482 2.14307 93.1557 2.24385 93.231 2.36695ZM56.6732 5.1153C56.6732 5.25452 56.5535 5.36821 56.4071 5.36821C56.2608 5.36821 56.141 5.17954 56.141 4.94921C56.141 4.71888 56.2608 4.60492 56.4071 4.6963C56.5535 4.78768 56.6732 4.97608 56.6732 5.1153ZM19.955 10.5932C19.955 10.6585 19.8352 10.7864 19.6889 10.8778C19.5425 10.9692 19.4228 10.9157 19.4228 10.7593C19.4228 10.6029 19.5425 10.4747 19.6889 10.4747C19.8352 10.4747 19.955 10.5279 19.955 10.5932ZM12.5714 12.3772C12.2423 12.5038 11.9727 12.7323 11.9727 12.8849C11.9727 13.2781 12.6994 13.2303 12.8617 12.8263C12.9657 12.567 13.0554 12.5753 13.2544 12.8626C13.5447 13.2819 14.8996 13.0709 14.8996 12.6062C14.8996 12.4213 14.7447 12.4167 14.4342 12.5925C14.1085 12.7763 13.8486 12.7489 13.5694 12.5011C13.3007 12.2627 12.9742 12.2222 12.5714 12.3772ZM10.9084 12.8777C10.9084 13.0169 11.0468 13.2169 11.2158 13.3222C11.3972 13.4356 11.451 13.3967 11.3469 13.2268C11.2503 13.0688 11.3217 12.8782 11.5055 12.8032C11.7072 12.7213 11.655 12.6589 11.3741 12.646C11.1178 12.6344 10.9084 12.7385 10.9084 12.8777ZM9.57807 13.4351C9.57807 13.5982 9.6978 13.6568 9.84414 13.5654C9.99048 13.4741 10.1102 13.588 10.1102 13.8183C10.1102 14.0487 10.2898 14.2373 10.5093 14.2373C10.942 14.2373 11.0138 13.9901 10.7049 13.5654C10.425 13.1808 9.57807 13.083 9.57807 13.4351ZM12.3718 13.6998C12.2814 13.8476 12.3343 13.9686 12.4892 13.9686C12.644 13.9686 12.771 13.8476 12.771 13.6998C12.771 13.552 12.7183 13.4311 12.6536 13.4311C12.589 13.4311 12.4623 13.552 12.3718 13.6998ZM8.26872 14.1253C8.28149 14.4384 8.34455 14.5021 8.42943 14.2879C8.50632 14.0938 8.49674 13.8619 8.40841 13.7727C8.32007 13.6834 8.25728 13.842 8.26872 14.1253ZM6.38518 14.5064C6.05338 14.7294 6.04726 14.8146 6.34819 15.0106C6.81569 15.3153 7.76743 15.0665 7.63786 14.6735C7.50269 14.2637 6.8713 14.1796 6.38518 14.5064ZM4.94598 15.0041C4.86882 15.1302 4.97765 15.4626 5.18784 15.7432C5.39804 16.0235 5.57392 16.1117 5.57844 15.9391C5.58323 15.7663 5.65959 15.4339 5.74846 15.2C5.91928 14.7504 5.20753 14.5765 4.94598 15.0041ZM3.95645 15.3258C3.80932 15.8504 3.83459 16.6562 3.99849 16.6562C4.34998 16.6562 4.55113 15.7712 4.26537 15.4825C4.11424 15.3299 3.97535 15.2592 3.95645 15.3258ZM2.5271 16.0555C2.23123 16.2751 2.09819 17.4625 2.36959 17.4625C2.46431 17.4625 2.75167 17.2149 3.00817 16.9123C3.62759 16.1818 3.25375 15.5164 2.5271 16.0555ZM1.32977 16.9091C1.32977 17.2133 1.4495 17.4625 1.59584 17.4625C1.74219 17.4625 1.86192 17.2883 1.86192 17.0752C1.86192 16.8621 1.74219 16.6132 1.59584 16.5218C1.4495 16.4304 1.32977 16.6049 1.32977 16.9091ZM0.231416 17.1109C-0.0801565 17.499 -0.0782939 17.5321 0.244188 17.3356C0.527557 17.1631 0.579441 17.2174 0.451992 17.5528C0.3586 17.7987 0.385473 18 0.511326 18C0.742279 18 1.0637 17.3614 1.0637 16.9029C1.0637 16.5084 0.628133 16.6172 0.231416 17.1109Z" fill="#0083FF"/>
</svg>
